G04 #@! TF.GenerationSoftware,KiCad,Pcbnew,(5.1.5)-2*
G04 #@! TF.CreationDate,2019-12-31T23:10:34+04:00*
G04 #@! TF.ProjectId,ad8066_filter,61643830-3636-45f6-9669-6c7465722e6b,1*
G04 #@! TF.SameCoordinates,Original*
G04 #@! TF.FileFunction,Legend,Top*
G04 #@! TF.FilePolarity,Positive*
%FSLAX46Y46*%
G04 Gerber Fmt 4.6, Leading zero omitted, Abs format (unit mm)*
G04 Created by KiCad (PCBNEW (5.1.5)-2) date 2019-12-31 23:10:34*
%MOMM*%
%LPD*%
G04 APERTURE LIST*
%ADD10C,0.076200*%
%ADD11C,0.120000*%
G04 APERTURE END LIST*
D10*
X162487428Y-98470357D02*
X162306000Y-98470357D01*
X162287857Y-98651785D01*
X162306000Y-98633642D01*
X162342285Y-98615500D01*
X162433000Y-98615500D01*
X162469285Y-98633642D01*
X162487428Y-98651785D01*
X162505571Y-98688071D01*
X162505571Y-98778785D01*
X162487428Y-98815071D01*
X162469285Y-98833214D01*
X162433000Y-98851357D01*
X162342285Y-98851357D01*
X162306000Y-98833214D01*
X162287857Y-98815071D01*
X162614428Y-98470357D02*
X162741428Y-98851357D01*
X162868428Y-98470357D01*
X164936714Y-98851357D02*
X164936714Y-98470357D01*
X165245142Y-98651785D02*
X165118142Y-98651785D01*
X165118142Y-98851357D02*
X165118142Y-98470357D01*
X165299571Y-98470357D01*
X167349714Y-98488500D02*
X167313428Y-98470357D01*
X167259000Y-98470357D01*
X167204571Y-98488500D01*
X167168285Y-98524785D01*
X167150142Y-98561071D01*
X167132000Y-98633642D01*
X167132000Y-98688071D01*
X167150142Y-98760642D01*
X167168285Y-98796928D01*
X167204571Y-98833214D01*
X167259000Y-98851357D01*
X167295285Y-98851357D01*
X167349714Y-98833214D01*
X167367857Y-98815071D01*
X167367857Y-98688071D01*
X167295285Y-98688071D01*
X167531142Y-98851357D02*
X167531142Y-98470357D01*
X167748857Y-98851357D01*
X167748857Y-98470357D01*
X167930285Y-98851357D02*
X167930285Y-98470357D01*
X168021000Y-98470357D01*
X168075428Y-98488500D01*
X168111714Y-98524785D01*
X168129857Y-98561071D01*
X168148000Y-98633642D01*
X168148000Y-98688071D01*
X168129857Y-98760642D01*
X168111714Y-98796928D01*
X168075428Y-98833214D01*
X168021000Y-98851357D01*
X167930285Y-98851357D01*
X161997571Y-79166357D02*
X162070142Y-79166357D01*
X162106428Y-79184500D01*
X162142714Y-79220785D01*
X162160857Y-79293357D01*
X162160857Y-79420357D01*
X162142714Y-79492928D01*
X162106428Y-79529214D01*
X162070142Y-79547357D01*
X161997571Y-79547357D01*
X161961285Y-79529214D01*
X161925000Y-79492928D01*
X161906857Y-79420357D01*
X161906857Y-79293357D01*
X161925000Y-79220785D01*
X161961285Y-79184500D01*
X161997571Y-79166357D01*
X162324142Y-79166357D02*
X162324142Y-79474785D01*
X162342285Y-79511071D01*
X162360428Y-79529214D01*
X162396714Y-79547357D01*
X162469285Y-79547357D01*
X162505571Y-79529214D01*
X162523714Y-79511071D01*
X162541857Y-79474785D01*
X162541857Y-79166357D01*
X162668857Y-79166357D02*
X162886571Y-79166357D01*
X162777714Y-79547357D02*
X162777714Y-79166357D01*
X163213142Y-79547357D02*
X162995428Y-79547357D01*
X163104285Y-79547357D02*
X163104285Y-79166357D01*
X163068000Y-79220785D01*
X163031714Y-79257071D01*
X162995428Y-79275214D01*
X167077571Y-79166357D02*
X167150142Y-79166357D01*
X167186428Y-79184500D01*
X167222714Y-79220785D01*
X167240857Y-79293357D01*
X167240857Y-79420357D01*
X167222714Y-79492928D01*
X167186428Y-79529214D01*
X167150142Y-79547357D01*
X167077571Y-79547357D01*
X167041285Y-79529214D01*
X167005000Y-79492928D01*
X166986857Y-79420357D01*
X166986857Y-79293357D01*
X167005000Y-79220785D01*
X167041285Y-79184500D01*
X167077571Y-79166357D01*
X167404142Y-79166357D02*
X167404142Y-79474785D01*
X167422285Y-79511071D01*
X167440428Y-79529214D01*
X167476714Y-79547357D01*
X167549285Y-79547357D01*
X167585571Y-79529214D01*
X167603714Y-79511071D01*
X167621857Y-79474785D01*
X167621857Y-79166357D01*
X167748857Y-79166357D02*
X167966571Y-79166357D01*
X167857714Y-79547357D02*
X167857714Y-79166357D01*
X168075428Y-79202642D02*
X168093571Y-79184500D01*
X168129857Y-79166357D01*
X168220571Y-79166357D01*
X168256857Y-79184500D01*
X168275000Y-79202642D01*
X168293142Y-79238928D01*
X168293142Y-79275214D01*
X168275000Y-79329642D01*
X168057285Y-79547357D01*
X168293142Y-79547357D01*
X164809714Y-79184500D02*
X164773428Y-79166357D01*
X164719000Y-79166357D01*
X164664571Y-79184500D01*
X164628285Y-79220785D01*
X164610142Y-79257071D01*
X164592000Y-79329642D01*
X164592000Y-79384071D01*
X164610142Y-79456642D01*
X164628285Y-79492928D01*
X164664571Y-79529214D01*
X164719000Y-79547357D01*
X164755285Y-79547357D01*
X164809714Y-79529214D01*
X164827857Y-79511071D01*
X164827857Y-79384071D01*
X164755285Y-79384071D01*
X164991142Y-79547357D02*
X164991142Y-79166357D01*
X165208857Y-79547357D01*
X165208857Y-79166357D01*
X165390285Y-79547357D02*
X165390285Y-79166357D01*
X165481000Y-79166357D01*
X165535428Y-79184500D01*
X165571714Y-79220785D01*
X165589857Y-79257071D01*
X165608000Y-79329642D01*
X165608000Y-79384071D01*
X165589857Y-79456642D01*
X165571714Y-79492928D01*
X165535428Y-79529214D01*
X165481000Y-79547357D01*
X165390285Y-79547357D01*
X170899666Y-78296709D02*
X170899666Y-78030614D01*
X170875476Y-77982233D01*
X170827095Y-77958042D01*
X170730333Y-77958042D01*
X170681952Y-77982233D01*
X170899666Y-78272519D02*
X170851285Y-78296709D01*
X170730333Y-78296709D01*
X170681952Y-78272519D01*
X170657761Y-78224138D01*
X170657761Y-78175757D01*
X170681952Y-78127376D01*
X170730333Y-78103185D01*
X170851285Y-78103185D01*
X170899666Y-78078995D01*
X171359285Y-78296709D02*
X171359285Y-77788709D01*
X171359285Y-78272519D02*
X171310904Y-78296709D01*
X171214142Y-78296709D01*
X171165761Y-78272519D01*
X171141571Y-78248328D01*
X171117380Y-78199947D01*
X171117380Y-78054804D01*
X171141571Y-78006423D01*
X171165761Y-77982233D01*
X171214142Y-77958042D01*
X171310904Y-77958042D01*
X171359285Y-77982233D01*
X171673761Y-78006423D02*
X171625380Y-77982233D01*
X171601190Y-77958042D01*
X171577000Y-77909661D01*
X171577000Y-77885471D01*
X171601190Y-77837090D01*
X171625380Y-77812900D01*
X171673761Y-77788709D01*
X171770523Y-77788709D01*
X171818904Y-77812900D01*
X171843095Y-77837090D01*
X171867285Y-77885471D01*
X171867285Y-77909661D01*
X171843095Y-77958042D01*
X171818904Y-77982233D01*
X171770523Y-78006423D01*
X171673761Y-78006423D01*
X171625380Y-78030614D01*
X171601190Y-78054804D01*
X171577000Y-78103185D01*
X171577000Y-78199947D01*
X171601190Y-78248328D01*
X171625380Y-78272519D01*
X171673761Y-78296709D01*
X171770523Y-78296709D01*
X171818904Y-78272519D01*
X171843095Y-78248328D01*
X171867285Y-78199947D01*
X171867285Y-78103185D01*
X171843095Y-78054804D01*
X171818904Y-78030614D01*
X171770523Y-78006423D01*
X172181761Y-77788709D02*
X172230142Y-77788709D01*
X172278523Y-77812900D01*
X172302714Y-77837090D01*
X172326904Y-77885471D01*
X172351095Y-77982233D01*
X172351095Y-78103185D01*
X172326904Y-78199947D01*
X172302714Y-78248328D01*
X172278523Y-78272519D01*
X172230142Y-78296709D01*
X172181761Y-78296709D01*
X172133380Y-78272519D01*
X172109190Y-78248328D01*
X172085000Y-78199947D01*
X172060809Y-78103185D01*
X172060809Y-77982233D01*
X172085000Y-77885471D01*
X172109190Y-77837090D01*
X172133380Y-77812900D01*
X172181761Y-77788709D01*
X172786523Y-77788709D02*
X172689761Y-77788709D01*
X172641380Y-77812900D01*
X172617190Y-77837090D01*
X172568809Y-77909661D01*
X172544619Y-78006423D01*
X172544619Y-78199947D01*
X172568809Y-78248328D01*
X172593000Y-78272519D01*
X172641380Y-78296709D01*
X172738142Y-78296709D01*
X172786523Y-78272519D01*
X172810714Y-78248328D01*
X172834904Y-78199947D01*
X172834904Y-78078995D01*
X172810714Y-78030614D01*
X172786523Y-78006423D01*
X172738142Y-77982233D01*
X172641380Y-77982233D01*
X172593000Y-78006423D01*
X172568809Y-78030614D01*
X172544619Y-78078995D01*
X173270333Y-77788709D02*
X173173571Y-77788709D01*
X173125190Y-77812900D01*
X173101000Y-77837090D01*
X173052619Y-77909661D01*
X173028428Y-78006423D01*
X173028428Y-78199947D01*
X173052619Y-78248328D01*
X173076809Y-78272519D01*
X173125190Y-78296709D01*
X173221952Y-78296709D01*
X173270333Y-78272519D01*
X173294523Y-78248328D01*
X173318714Y-78199947D01*
X173318714Y-78078995D01*
X173294523Y-78030614D01*
X173270333Y-78006423D01*
X173221952Y-77982233D01*
X173125190Y-77982233D01*
X173076809Y-78006423D01*
X173052619Y-78030614D01*
X173028428Y-78078995D01*
X173415476Y-78345090D02*
X173802523Y-78345090D01*
X173850904Y-77958042D02*
X174044428Y-77958042D01*
X173923476Y-78296709D02*
X173923476Y-77861280D01*
X173947666Y-77812900D01*
X173996047Y-77788709D01*
X174044428Y-77788709D01*
X174213761Y-78296709D02*
X174213761Y-77958042D01*
X174213761Y-77788709D02*
X174189571Y-77812900D01*
X174213761Y-77837090D01*
X174237952Y-77812900D01*
X174213761Y-77788709D01*
X174213761Y-77837090D01*
X174528238Y-78296709D02*
X174479857Y-78272519D01*
X174455666Y-78224138D01*
X174455666Y-77788709D01*
X174649190Y-77958042D02*
X174842714Y-77958042D01*
X174721761Y-77788709D02*
X174721761Y-78224138D01*
X174745952Y-78272519D01*
X174794333Y-78296709D01*
X174842714Y-78296709D01*
X175205571Y-78272519D02*
X175157190Y-78296709D01*
X175060428Y-78296709D01*
X175012047Y-78272519D01*
X174987857Y-78224138D01*
X174987857Y-78030614D01*
X175012047Y-77982233D01*
X175060428Y-77958042D01*
X175157190Y-77958042D01*
X175205571Y-77982233D01*
X175229761Y-78030614D01*
X175229761Y-78078995D01*
X174987857Y-78127376D01*
X175447476Y-78296709D02*
X175447476Y-77958042D01*
X175447476Y-78054804D02*
X175471666Y-78006423D01*
X175495857Y-77982233D01*
X175544238Y-77958042D01*
X175592619Y-77958042D01*
X170294904Y-79134909D02*
X170294904Y-78796242D01*
X170294904Y-78626909D02*
X170270714Y-78651100D01*
X170294904Y-78675290D01*
X170319095Y-78651100D01*
X170294904Y-78626909D01*
X170294904Y-78675290D01*
X170536809Y-79134909D02*
X170536809Y-78796242D01*
X170536809Y-78844623D02*
X170561000Y-78820433D01*
X170609380Y-78796242D01*
X170681952Y-78796242D01*
X170730333Y-78820433D01*
X170754523Y-78868814D01*
X170754523Y-79134909D01*
X170754523Y-78868814D02*
X170778714Y-78820433D01*
X170827095Y-78796242D01*
X170899666Y-78796242D01*
X170948047Y-78820433D01*
X170972238Y-78868814D01*
X170972238Y-79134909D01*
X171431857Y-79134909D02*
X171431857Y-78868814D01*
X171407666Y-78820433D01*
X171359285Y-78796242D01*
X171262523Y-78796242D01*
X171214142Y-78820433D01*
X171431857Y-79110719D02*
X171383476Y-79134909D01*
X171262523Y-79134909D01*
X171214142Y-79110719D01*
X171189952Y-79062338D01*
X171189952Y-79013957D01*
X171214142Y-78965576D01*
X171262523Y-78941385D01*
X171383476Y-78941385D01*
X171431857Y-78917195D01*
X171673761Y-78796242D02*
X171673761Y-79134909D01*
X171673761Y-78844623D02*
X171697952Y-78820433D01*
X171746333Y-78796242D01*
X171818904Y-78796242D01*
X171867285Y-78820433D01*
X171891476Y-78868814D01*
X171891476Y-79134909D01*
X172012428Y-79183290D02*
X172399476Y-79183290D01*
X172496238Y-78675290D02*
X172520428Y-78651100D01*
X172568809Y-78626909D01*
X172689761Y-78626909D01*
X172738142Y-78651100D01*
X172762333Y-78675290D01*
X172786523Y-78723671D01*
X172786523Y-78772052D01*
X172762333Y-78844623D01*
X172472047Y-79134909D01*
X172786523Y-79134909D01*
X173101000Y-78626909D02*
X173149380Y-78626909D01*
X173197761Y-78651100D01*
X173221952Y-78675290D01*
X173246142Y-78723671D01*
X173270333Y-78820433D01*
X173270333Y-78941385D01*
X173246142Y-79038147D01*
X173221952Y-79086528D01*
X173197761Y-79110719D01*
X173149380Y-79134909D01*
X173101000Y-79134909D01*
X173052619Y-79110719D01*
X173028428Y-79086528D01*
X173004238Y-79038147D01*
X172980047Y-78941385D01*
X172980047Y-78820433D01*
X173004238Y-78723671D01*
X173028428Y-78675290D01*
X173052619Y-78651100D01*
X173101000Y-78626909D01*
X173463857Y-78675290D02*
X173488047Y-78651100D01*
X173536428Y-78626909D01*
X173657380Y-78626909D01*
X173705761Y-78651100D01*
X173729952Y-78675290D01*
X173754142Y-78723671D01*
X173754142Y-78772052D01*
X173729952Y-78844623D01*
X173439666Y-79134909D01*
X173754142Y-79134909D01*
X174068619Y-78626909D02*
X174117000Y-78626909D01*
X174165380Y-78651100D01*
X174189571Y-78675290D01*
X174213761Y-78723671D01*
X174237952Y-78820433D01*
X174237952Y-78941385D01*
X174213761Y-79038147D01*
X174189571Y-79086528D01*
X174165380Y-79110719D01*
X174117000Y-79134909D01*
X174068619Y-79134909D01*
X174020238Y-79110719D01*
X173996047Y-79086528D01*
X173971857Y-79038147D01*
X173947666Y-78941385D01*
X173947666Y-78820433D01*
X173971857Y-78723671D01*
X173996047Y-78675290D01*
X174020238Y-78651100D01*
X174068619Y-78626909D01*
X174552428Y-78626909D02*
X174600809Y-78626909D01*
X174649190Y-78651100D01*
X174673380Y-78675290D01*
X174697571Y-78723671D01*
X174721761Y-78820433D01*
X174721761Y-78941385D01*
X174697571Y-79038147D01*
X174673380Y-79086528D01*
X174649190Y-79110719D01*
X174600809Y-79134909D01*
X174552428Y-79134909D01*
X174504047Y-79110719D01*
X174479857Y-79086528D01*
X174455666Y-79038147D01*
X174431476Y-78941385D01*
X174431476Y-78820433D01*
X174455666Y-78723671D01*
X174479857Y-78675290D01*
X174504047Y-78651100D01*
X174552428Y-78626909D01*
X175205571Y-79134909D02*
X174915285Y-79134909D01*
X175060428Y-79134909D02*
X175060428Y-78626909D01*
X175012047Y-78699480D01*
X174963666Y-78747861D01*
X174915285Y-78772052D01*
X175423285Y-79086528D02*
X175447476Y-79110719D01*
X175423285Y-79134909D01*
X175399095Y-79110719D01*
X175423285Y-79086528D01*
X175423285Y-79134909D01*
X175931285Y-79134909D02*
X175641000Y-79134909D01*
X175786142Y-79134909D02*
X175786142Y-78626909D01*
X175737761Y-78699480D01*
X175689380Y-78747861D01*
X175641000Y-78772052D01*
D11*
X172414000Y-95765252D02*
X172414000Y-95242748D01*
X170994000Y-95765252D02*
X170994000Y-95242748D01*
X174950000Y-97364000D02*
X174950000Y-94504000D01*
X173030000Y-97364000D02*
X174950000Y-97364000D01*
X173030000Y-94504000D02*
X173030000Y-97364000D01*
X169180252Y-80951000D02*
X168657748Y-80951000D01*
X169180252Y-82371000D02*
X168657748Y-82371000D01*
X169162252Y-83110000D02*
X168639748Y-83110000D01*
X169162252Y-84530000D02*
X168639748Y-84530000D01*
X172458748Y-88721000D02*
X172981252Y-88721000D01*
X172458748Y-87301000D02*
X172981252Y-87301000D01*
X162352500Y-87451000D02*
X160700000Y-87451000D01*
X162352500Y-87168500D02*
X162352500Y-87451000D01*
X165100000Y-87168500D02*
X162352500Y-87168500D01*
X167847500Y-87168500D02*
X167847500Y-87451000D01*
X165100000Y-87168500D02*
X167847500Y-87168500D01*
X162352500Y-92663500D02*
X162352500Y-92381000D01*
X165100000Y-92663500D02*
X162352500Y-92663500D01*
X167847500Y-92663500D02*
X167847500Y-92381000D01*
X165100000Y-92663500D02*
X167847500Y-92663500D01*
X157224252Y-91365000D02*
X156701748Y-91365000D01*
X157224252Y-92785000D02*
X156701748Y-92785000D01*
X156701748Y-97865000D02*
X157224252Y-97865000D01*
X156701748Y-96445000D02*
X157224252Y-96445000D01*
X157224252Y-98477000D02*
X156701748Y-98477000D01*
X157224252Y-99897000D02*
X156701748Y-99897000D01*
X161306252Y-80951000D02*
X160783748Y-80951000D01*
X161306252Y-82371000D02*
X160783748Y-82371000D01*
X165225252Y-83110000D02*
X164702748Y-83110000D01*
X165225252Y-84530000D02*
X164702748Y-84530000D01*
X157242252Y-87047000D02*
X156719748Y-87047000D01*
X157242252Y-88467000D02*
X156719748Y-88467000D01*
X161230000Y-78927000D02*
X161230000Y-77597000D01*
X162560000Y-78927000D02*
X161230000Y-78927000D01*
X163830000Y-78927000D02*
X163830000Y-76267000D01*
X163830000Y-76267000D02*
X168970000Y-76267000D01*
X163830000Y-78927000D02*
X168970000Y-78927000D01*
X168970000Y-78927000D02*
X168970000Y-76267000D01*
X161230000Y-101660000D02*
X161230000Y-100330000D01*
X162560000Y-101660000D02*
X161230000Y-101660000D01*
X163830000Y-101660000D02*
X163830000Y-99000000D01*
X163830000Y-99000000D02*
X168970000Y-99000000D01*
X163830000Y-101660000D02*
X168970000Y-101660000D01*
X168970000Y-101660000D02*
X168970000Y-99000000D01*
X156701748Y-95833000D02*
X157224252Y-95833000D01*
X156701748Y-94413000D02*
X157224252Y-94413000D01*
X161306252Y-83110000D02*
X160783748Y-83110000D01*
X161306252Y-84530000D02*
X160783748Y-84530000D01*
X165225252Y-80951000D02*
X164702748Y-80951000D01*
X165225252Y-82371000D02*
X164702748Y-82371000D01*
X156719748Y-90626000D02*
X157242252Y-90626000D01*
X156719748Y-89206000D02*
X157242252Y-89206000D01*
D10*
X171619333Y-98155809D02*
X171450000Y-97913904D01*
X171329047Y-98155809D02*
X171329047Y-97647809D01*
X171522571Y-97647809D01*
X171570952Y-97672000D01*
X171595142Y-97696190D01*
X171619333Y-97744571D01*
X171619333Y-97817142D01*
X171595142Y-97865523D01*
X171570952Y-97889714D01*
X171522571Y-97913904D01*
X171329047Y-97913904D01*
X171909619Y-97865523D02*
X171861238Y-97841333D01*
X171837047Y-97817142D01*
X171812857Y-97768761D01*
X171812857Y-97744571D01*
X171837047Y-97696190D01*
X171861238Y-97672000D01*
X171909619Y-97647809D01*
X172006380Y-97647809D01*
X172054761Y-97672000D01*
X172078952Y-97696190D01*
X172103142Y-97744571D01*
X172103142Y-97768761D01*
X172078952Y-97817142D01*
X172054761Y-97841333D01*
X172006380Y-97865523D01*
X171909619Y-97865523D01*
X171861238Y-97889714D01*
X171837047Y-97913904D01*
X171812857Y-97962285D01*
X171812857Y-98059047D01*
X171837047Y-98107428D01*
X171861238Y-98131619D01*
X171909619Y-98155809D01*
X172006380Y-98155809D01*
X172054761Y-98131619D01*
X172078952Y-98107428D01*
X172103142Y-98059047D01*
X172103142Y-97962285D01*
X172078952Y-97913904D01*
X172054761Y-97889714D01*
X172006380Y-97865523D01*
X173615047Y-98137809D02*
X173615047Y-97629809D01*
X173736000Y-97629809D01*
X173808571Y-97654000D01*
X173856952Y-97702380D01*
X173881142Y-97750761D01*
X173905333Y-97847523D01*
X173905333Y-97920095D01*
X173881142Y-98016857D01*
X173856952Y-98065238D01*
X173808571Y-98113619D01*
X173736000Y-98137809D01*
X173615047Y-98137809D01*
X174389142Y-98137809D02*
X174098857Y-98137809D01*
X174244000Y-98137809D02*
X174244000Y-97629809D01*
X174195619Y-97702380D01*
X174147238Y-97750761D01*
X174098857Y-97774952D01*
X171111333Y-81842428D02*
X171087142Y-81866619D01*
X171014571Y-81890809D01*
X170966190Y-81890809D01*
X170893619Y-81866619D01*
X170845238Y-81818238D01*
X170821047Y-81769857D01*
X170796857Y-81673095D01*
X170796857Y-81600523D01*
X170821047Y-81503761D01*
X170845238Y-81455380D01*
X170893619Y-81407000D01*
X170966190Y-81382809D01*
X171014571Y-81382809D01*
X171087142Y-81407000D01*
X171111333Y-81431190D01*
X171546761Y-81552142D02*
X171546761Y-81890809D01*
X171425809Y-81358619D02*
X171304857Y-81721476D01*
X171619333Y-81721476D01*
X171238333Y-84049809D02*
X171069000Y-83807904D01*
X170948047Y-84049809D02*
X170948047Y-83541809D01*
X171141571Y-83541809D01*
X171189952Y-83566000D01*
X171214142Y-83590190D01*
X171238333Y-83638571D01*
X171238333Y-83711142D01*
X171214142Y-83759523D01*
X171189952Y-83783714D01*
X171141571Y-83807904D01*
X170948047Y-83807904D01*
X171673761Y-83711142D02*
X171673761Y-84049809D01*
X171552809Y-83517619D02*
X171431857Y-83880476D01*
X171746333Y-83880476D01*
X172635333Y-86542428D02*
X172611142Y-86566619D01*
X172538571Y-86590809D01*
X172490190Y-86590809D01*
X172417619Y-86566619D01*
X172369238Y-86518238D01*
X172345047Y-86469857D01*
X172320857Y-86373095D01*
X172320857Y-86300523D01*
X172345047Y-86203761D01*
X172369238Y-86155380D01*
X172417619Y-86107000D01*
X172490190Y-86082809D01*
X172538571Y-86082809D01*
X172611142Y-86107000D01*
X172635333Y-86131190D01*
X173070761Y-86082809D02*
X172974000Y-86082809D01*
X172925619Y-86107000D01*
X172901428Y-86131190D01*
X172853047Y-86203761D01*
X172828857Y-86300523D01*
X172828857Y-86494047D01*
X172853047Y-86542428D01*
X172877238Y-86566619D01*
X172925619Y-86590809D01*
X173022380Y-86590809D01*
X173070761Y-86566619D01*
X173094952Y-86542428D01*
X173119142Y-86494047D01*
X173119142Y-86373095D01*
X173094952Y-86324714D01*
X173070761Y-86300523D01*
X173022380Y-86276333D01*
X172925619Y-86276333D01*
X172877238Y-86300523D01*
X172853047Y-86324714D01*
X172828857Y-86373095D01*
X168141952Y-92812809D02*
X168141952Y-93224047D01*
X168166142Y-93272428D01*
X168190333Y-93296619D01*
X168238714Y-93320809D01*
X168335476Y-93320809D01*
X168383857Y-93296619D01*
X168408047Y-93272428D01*
X168432238Y-93224047D01*
X168432238Y-92812809D01*
X168940238Y-93320809D02*
X168649952Y-93320809D01*
X168795095Y-93320809D02*
X168795095Y-92812809D01*
X168746714Y-92885380D01*
X168698333Y-92933761D01*
X168649952Y-92957952D01*
X154915809Y-92159666D02*
X154673904Y-92329000D01*
X154915809Y-92449952D02*
X154407809Y-92449952D01*
X154407809Y-92256428D01*
X154432000Y-92208047D01*
X154456190Y-92183857D01*
X154504571Y-92159666D01*
X154577142Y-92159666D01*
X154625523Y-92183857D01*
X154649714Y-92208047D01*
X154673904Y-92256428D01*
X154673904Y-92449952D01*
X154407809Y-91990333D02*
X154407809Y-91651666D01*
X154915809Y-91869380D01*
X154915809Y-97239666D02*
X154673904Y-97409000D01*
X154915809Y-97529952D02*
X154407809Y-97529952D01*
X154407809Y-97336428D01*
X154432000Y-97288047D01*
X154456190Y-97263857D01*
X154504571Y-97239666D01*
X154577142Y-97239666D01*
X154625523Y-97263857D01*
X154649714Y-97288047D01*
X154673904Y-97336428D01*
X154673904Y-97529952D01*
X154407809Y-96804238D02*
X154407809Y-96901000D01*
X154432000Y-96949380D01*
X154456190Y-96973571D01*
X154528761Y-97021952D01*
X154625523Y-97046142D01*
X154819047Y-97046142D01*
X154867428Y-97021952D01*
X154891619Y-96997761D01*
X154915809Y-96949380D01*
X154915809Y-96852619D01*
X154891619Y-96804238D01*
X154867428Y-96780047D01*
X154819047Y-96755857D01*
X154698095Y-96755857D01*
X154649714Y-96780047D01*
X154625523Y-96804238D01*
X154601333Y-96852619D01*
X154601333Y-96949380D01*
X154625523Y-96997761D01*
X154649714Y-97021952D01*
X154698095Y-97046142D01*
X154915809Y-99271666D02*
X154673904Y-99441000D01*
X154915809Y-99561952D02*
X154407809Y-99561952D01*
X154407809Y-99368428D01*
X154432000Y-99320047D01*
X154456190Y-99295857D01*
X154504571Y-99271666D01*
X154577142Y-99271666D01*
X154625523Y-99295857D01*
X154649714Y-99320047D01*
X154673904Y-99368428D01*
X154673904Y-99561952D01*
X154407809Y-98812047D02*
X154407809Y-99053952D01*
X154649714Y-99078142D01*
X154625523Y-99053952D01*
X154601333Y-99005571D01*
X154601333Y-98884619D01*
X154625523Y-98836238D01*
X154649714Y-98812047D01*
X154698095Y-98787857D01*
X154819047Y-98787857D01*
X154867428Y-98812047D01*
X154891619Y-98836238D01*
X154915809Y-98884619D01*
X154915809Y-99005571D01*
X154891619Y-99053952D01*
X154867428Y-99078142D01*
X158538333Y-81890809D02*
X158369000Y-81648904D01*
X158248047Y-81890809D02*
X158248047Y-81382809D01*
X158441571Y-81382809D01*
X158489952Y-81407000D01*
X158514142Y-81431190D01*
X158538333Y-81479571D01*
X158538333Y-81552142D01*
X158514142Y-81600523D01*
X158489952Y-81624714D01*
X158441571Y-81648904D01*
X158248047Y-81648904D01*
X158707666Y-81382809D02*
X159022142Y-81382809D01*
X158852809Y-81576333D01*
X158925380Y-81576333D01*
X158973761Y-81600523D01*
X158997952Y-81624714D01*
X159022142Y-81673095D01*
X159022142Y-81794047D01*
X158997952Y-81842428D01*
X158973761Y-81866619D01*
X158925380Y-81890809D01*
X158780238Y-81890809D01*
X158731857Y-81866619D01*
X158707666Y-81842428D01*
X164888333Y-85446809D02*
X164719000Y-85204904D01*
X164598047Y-85446809D02*
X164598047Y-84938809D01*
X164791571Y-84938809D01*
X164839952Y-84963000D01*
X164864142Y-84987190D01*
X164888333Y-85035571D01*
X164888333Y-85108142D01*
X164864142Y-85156523D01*
X164839952Y-85180714D01*
X164791571Y-85204904D01*
X164598047Y-85204904D01*
X165081857Y-84987190D02*
X165106047Y-84963000D01*
X165154428Y-84938809D01*
X165275380Y-84938809D01*
X165323761Y-84963000D01*
X165347952Y-84987190D01*
X165372142Y-85035571D01*
X165372142Y-85083952D01*
X165347952Y-85156523D01*
X165057666Y-85446809D01*
X165372142Y-85446809D01*
X154915809Y-87841666D02*
X154673904Y-88011000D01*
X154915809Y-88131952D02*
X154407809Y-88131952D01*
X154407809Y-87938428D01*
X154432000Y-87890047D01*
X154456190Y-87865857D01*
X154504571Y-87841666D01*
X154577142Y-87841666D01*
X154625523Y-87865857D01*
X154649714Y-87890047D01*
X154673904Y-87938428D01*
X154673904Y-88131952D01*
X154915809Y-87357857D02*
X154915809Y-87648142D01*
X154915809Y-87503000D02*
X154407809Y-87503000D01*
X154480380Y-87551380D01*
X154528761Y-87599761D01*
X154552952Y-87648142D01*
X160231666Y-78461809D02*
X160231666Y-78824666D01*
X160207476Y-78897238D01*
X160159095Y-78945619D01*
X160086523Y-78969809D01*
X160038142Y-78969809D01*
X160449380Y-78510190D02*
X160473571Y-78486000D01*
X160521952Y-78461809D01*
X160642904Y-78461809D01*
X160691285Y-78486000D01*
X160715476Y-78510190D01*
X160739666Y-78558571D01*
X160739666Y-78606952D01*
X160715476Y-78679523D01*
X160425190Y-78969809D01*
X160739666Y-78969809D01*
X169629666Y-99035809D02*
X169629666Y-99398666D01*
X169605476Y-99471238D01*
X169557095Y-99519619D01*
X169484523Y-99543809D01*
X169436142Y-99543809D01*
X170137666Y-99543809D02*
X169847380Y-99543809D01*
X169992523Y-99543809D02*
X169992523Y-99035809D01*
X169944142Y-99108380D01*
X169895761Y-99156761D01*
X169847380Y-99180952D01*
X154867428Y-95207666D02*
X154891619Y-95231857D01*
X154915809Y-95304428D01*
X154915809Y-95352809D01*
X154891619Y-95425380D01*
X154843238Y-95473761D01*
X154794857Y-95497952D01*
X154698095Y-95522142D01*
X154625523Y-95522142D01*
X154528761Y-95497952D01*
X154480380Y-95473761D01*
X154432000Y-95425380D01*
X154407809Y-95352809D01*
X154407809Y-95304428D01*
X154432000Y-95231857D01*
X154456190Y-95207666D01*
X154407809Y-94748047D02*
X154407809Y-94989952D01*
X154649714Y-95014142D01*
X154625523Y-94989952D01*
X154601333Y-94941571D01*
X154601333Y-94820619D01*
X154625523Y-94772238D01*
X154649714Y-94748047D01*
X154698095Y-94723857D01*
X154819047Y-94723857D01*
X154867428Y-94748047D01*
X154891619Y-94772238D01*
X154915809Y-94820619D01*
X154915809Y-94941571D01*
X154891619Y-94989952D01*
X154867428Y-95014142D01*
X158538333Y-84001428D02*
X158514142Y-84025619D01*
X158441571Y-84049809D01*
X158393190Y-84049809D01*
X158320619Y-84025619D01*
X158272238Y-83977238D01*
X158248047Y-83928857D01*
X158223857Y-83832095D01*
X158223857Y-83759523D01*
X158248047Y-83662761D01*
X158272238Y-83614380D01*
X158320619Y-83566000D01*
X158393190Y-83541809D01*
X158441571Y-83541809D01*
X158514142Y-83566000D01*
X158538333Y-83590190D01*
X158707666Y-83541809D02*
X159022142Y-83541809D01*
X158852809Y-83735333D01*
X158925380Y-83735333D01*
X158973761Y-83759523D01*
X158997952Y-83783714D01*
X159022142Y-83832095D01*
X159022142Y-83953047D01*
X158997952Y-84001428D01*
X158973761Y-84025619D01*
X158925380Y-84049809D01*
X158780238Y-84049809D01*
X158731857Y-84025619D01*
X158707666Y-84001428D01*
X164888333Y-80572428D02*
X164864142Y-80596619D01*
X164791571Y-80620809D01*
X164743190Y-80620809D01*
X164670619Y-80596619D01*
X164622238Y-80548238D01*
X164598047Y-80499857D01*
X164573857Y-80403095D01*
X164573857Y-80330523D01*
X164598047Y-80233761D01*
X164622238Y-80185380D01*
X164670619Y-80137000D01*
X164743190Y-80112809D01*
X164791571Y-80112809D01*
X164864142Y-80137000D01*
X164888333Y-80161190D01*
X165081857Y-80161190D02*
X165106047Y-80137000D01*
X165154428Y-80112809D01*
X165275380Y-80112809D01*
X165323761Y-80137000D01*
X165347952Y-80161190D01*
X165372142Y-80209571D01*
X165372142Y-80257952D01*
X165347952Y-80330523D01*
X165057666Y-80620809D01*
X165372142Y-80620809D01*
X154867428Y-90000666D02*
X154891619Y-90024857D01*
X154915809Y-90097428D01*
X154915809Y-90145809D01*
X154891619Y-90218380D01*
X154843238Y-90266761D01*
X154794857Y-90290952D01*
X154698095Y-90315142D01*
X154625523Y-90315142D01*
X154528761Y-90290952D01*
X154480380Y-90266761D01*
X154432000Y-90218380D01*
X154407809Y-90145809D01*
X154407809Y-90097428D01*
X154432000Y-90024857D01*
X154456190Y-90000666D01*
X154915809Y-89516857D02*
X154915809Y-89807142D01*
X154915809Y-89662000D02*
X154407809Y-89662000D01*
X154480380Y-89710380D01*
X154528761Y-89758761D01*
X154552952Y-89807142D01*
M02*
