G04 #@! TF.GenerationSoftware,KiCad,Pcbnew,(5.1.5)-3*
G04 #@! TF.CreationDate,2019-12-30T09:48:32+04:00*
G04 #@! TF.ProjectId,ad8066_filter,61643830-3636-45f6-9669-6c7465722e6b,rev?*
G04 #@! TF.SameCoordinates,Original*
G04 #@! TF.FileFunction,Soldermask,Top*
G04 #@! TF.FilePolarity,Negative*
%FSLAX46Y46*%
G04 Gerber Fmt 4.6, Leading zero omitted, Abs format (unit mm)*
G04 Created by KiCad (PCBNEW (5.1.5)-3) date 2019-12-30 09:48:32*
%MOMM*%
%LPD*%
G04 APERTURE LIST*
%ADD10C,0.100000*%
G04 APERTURE END LIST*
D10*
G36*
X167753512Y-99433927D02*
G01*
X167902812Y-99463624D01*
X168066784Y-99531544D01*
X168214354Y-99630147D01*
X168339853Y-99755646D01*
X168438456Y-99903216D01*
X168506376Y-100067188D01*
X168541000Y-100241259D01*
X168541000Y-100418741D01*
X168506376Y-100592812D01*
X168438456Y-100756784D01*
X168339853Y-100904354D01*
X168214354Y-101029853D01*
X168066784Y-101128456D01*
X167902812Y-101196376D01*
X167753512Y-101226073D01*
X167728742Y-101231000D01*
X167551258Y-101231000D01*
X167526488Y-101226073D01*
X167377188Y-101196376D01*
X167213216Y-101128456D01*
X167065646Y-101029853D01*
X166940147Y-100904354D01*
X166841544Y-100756784D01*
X166773624Y-100592812D01*
X166739000Y-100418741D01*
X166739000Y-100241259D01*
X166773624Y-100067188D01*
X166841544Y-99903216D01*
X166940147Y-99755646D01*
X167065646Y-99630147D01*
X167213216Y-99531544D01*
X167377188Y-99463624D01*
X167526488Y-99433927D01*
X167551258Y-99429000D01*
X167728742Y-99429000D01*
X167753512Y-99433927D01*
G37*
G36*
X165213512Y-99433927D02*
G01*
X165362812Y-99463624D01*
X165526784Y-99531544D01*
X165674354Y-99630147D01*
X165799853Y-99755646D01*
X165898456Y-99903216D01*
X165966376Y-100067188D01*
X166001000Y-100241259D01*
X166001000Y-100418741D01*
X165966376Y-100592812D01*
X165898456Y-100756784D01*
X165799853Y-100904354D01*
X165674354Y-101029853D01*
X165526784Y-101128456D01*
X165362812Y-101196376D01*
X165213512Y-101226073D01*
X165188742Y-101231000D01*
X165011258Y-101231000D01*
X164986488Y-101226073D01*
X164837188Y-101196376D01*
X164673216Y-101128456D01*
X164525646Y-101029853D01*
X164400147Y-100904354D01*
X164301544Y-100756784D01*
X164233624Y-100592812D01*
X164199000Y-100418741D01*
X164199000Y-100241259D01*
X164233624Y-100067188D01*
X164301544Y-99903216D01*
X164400147Y-99755646D01*
X164525646Y-99630147D01*
X164673216Y-99531544D01*
X164837188Y-99463624D01*
X164986488Y-99433927D01*
X165011258Y-99429000D01*
X165188742Y-99429000D01*
X165213512Y-99433927D01*
G37*
G36*
X163461000Y-101231000D02*
G01*
X161659000Y-101231000D01*
X161659000Y-99429000D01*
X163461000Y-99429000D01*
X163461000Y-101231000D01*
G37*
G36*
X156401674Y-98440465D02*
G01*
X156439367Y-98451899D01*
X156474103Y-98470466D01*
X156504548Y-98495452D01*
X156529534Y-98525897D01*
X156548101Y-98560633D01*
X156559535Y-98598326D01*
X156564000Y-98643661D01*
X156564000Y-99730339D01*
X156559535Y-99775674D01*
X156548101Y-99813367D01*
X156529534Y-99848103D01*
X156504548Y-99878548D01*
X156474103Y-99903534D01*
X156439367Y-99922101D01*
X156401674Y-99933535D01*
X156356339Y-99938000D01*
X155519661Y-99938000D01*
X155474326Y-99933535D01*
X155436633Y-99922101D01*
X155401897Y-99903534D01*
X155371452Y-99878548D01*
X155346466Y-99848103D01*
X155327899Y-99813367D01*
X155316465Y-99775674D01*
X155312000Y-99730339D01*
X155312000Y-98643661D01*
X155316465Y-98598326D01*
X155327899Y-98560633D01*
X155346466Y-98525897D01*
X155371452Y-98495452D01*
X155401897Y-98470466D01*
X155436633Y-98451899D01*
X155474326Y-98440465D01*
X155519661Y-98436000D01*
X156356339Y-98436000D01*
X156401674Y-98440465D01*
G37*
G36*
X158451674Y-98440465D02*
G01*
X158489367Y-98451899D01*
X158524103Y-98470466D01*
X158554548Y-98495452D01*
X158579534Y-98525897D01*
X158598101Y-98560633D01*
X158609535Y-98598326D01*
X158614000Y-98643661D01*
X158614000Y-99730339D01*
X158609535Y-99775674D01*
X158598101Y-99813367D01*
X158579534Y-99848103D01*
X158554548Y-99878548D01*
X158524103Y-99903534D01*
X158489367Y-99922101D01*
X158451674Y-99933535D01*
X158406339Y-99938000D01*
X157569661Y-99938000D01*
X157524326Y-99933535D01*
X157486633Y-99922101D01*
X157451897Y-99903534D01*
X157421452Y-99878548D01*
X157396466Y-99848103D01*
X157377899Y-99813367D01*
X157366465Y-99775674D01*
X157362000Y-99730339D01*
X157362000Y-98643661D01*
X157366465Y-98598326D01*
X157377899Y-98560633D01*
X157396466Y-98525897D01*
X157421452Y-98495452D01*
X157451897Y-98470466D01*
X157486633Y-98451899D01*
X157524326Y-98440465D01*
X157569661Y-98436000D01*
X158406339Y-98436000D01*
X158451674Y-98440465D01*
G37*
G36*
X156401674Y-96408465D02*
G01*
X156439367Y-96419899D01*
X156474103Y-96438466D01*
X156504548Y-96463452D01*
X156529534Y-96493897D01*
X156548101Y-96528633D01*
X156559535Y-96566326D01*
X156564000Y-96611661D01*
X156564000Y-97698339D01*
X156559535Y-97743674D01*
X156548101Y-97781367D01*
X156529534Y-97816103D01*
X156504548Y-97846548D01*
X156474103Y-97871534D01*
X156439367Y-97890101D01*
X156401674Y-97901535D01*
X156356339Y-97906000D01*
X155519661Y-97906000D01*
X155474326Y-97901535D01*
X155436633Y-97890101D01*
X155401897Y-97871534D01*
X155371452Y-97846548D01*
X155346466Y-97816103D01*
X155327899Y-97781367D01*
X155316465Y-97743674D01*
X155312000Y-97698339D01*
X155312000Y-96611661D01*
X155316465Y-96566326D01*
X155327899Y-96528633D01*
X155346466Y-96493897D01*
X155371452Y-96463452D01*
X155401897Y-96438466D01*
X155436633Y-96419899D01*
X155474326Y-96408465D01*
X155519661Y-96404000D01*
X156356339Y-96404000D01*
X156401674Y-96408465D01*
G37*
G36*
X158451674Y-96408465D02*
G01*
X158489367Y-96419899D01*
X158524103Y-96438466D01*
X158554548Y-96463452D01*
X158579534Y-96493897D01*
X158598101Y-96528633D01*
X158609535Y-96566326D01*
X158614000Y-96611661D01*
X158614000Y-97698339D01*
X158609535Y-97743674D01*
X158598101Y-97781367D01*
X158579534Y-97816103D01*
X158554548Y-97846548D01*
X158524103Y-97871534D01*
X158489367Y-97890101D01*
X158451674Y-97901535D01*
X158406339Y-97906000D01*
X157569661Y-97906000D01*
X157524326Y-97901535D01*
X157486633Y-97890101D01*
X157451897Y-97871534D01*
X157421452Y-97846548D01*
X157396466Y-97816103D01*
X157377899Y-97781367D01*
X157366465Y-97743674D01*
X157362000Y-97698339D01*
X157362000Y-96611661D01*
X157366465Y-96566326D01*
X157377899Y-96528633D01*
X157396466Y-96493897D01*
X157421452Y-96463452D01*
X157451897Y-96438466D01*
X157486633Y-96419899D01*
X157524326Y-96408465D01*
X157569661Y-96404000D01*
X158406339Y-96404000D01*
X158451674Y-96408465D01*
G37*
G36*
X174578674Y-95916465D02*
G01*
X174616367Y-95927899D01*
X174651103Y-95946466D01*
X174681548Y-95971452D01*
X174706534Y-96001897D01*
X174725101Y-96036633D01*
X174736535Y-96074326D01*
X174741000Y-96119661D01*
X174741000Y-96956339D01*
X174736535Y-97001674D01*
X174725101Y-97039367D01*
X174706534Y-97074103D01*
X174681548Y-97104548D01*
X174651103Y-97129534D01*
X174616367Y-97148101D01*
X174578674Y-97159535D01*
X174533339Y-97164000D01*
X173446661Y-97164000D01*
X173401326Y-97159535D01*
X173363633Y-97148101D01*
X173328897Y-97129534D01*
X173298452Y-97104548D01*
X173273466Y-97074103D01*
X173254899Y-97039367D01*
X173243465Y-97001674D01*
X173239000Y-96956339D01*
X173239000Y-96119661D01*
X173243465Y-96074326D01*
X173254899Y-96036633D01*
X173273466Y-96001897D01*
X173298452Y-95971452D01*
X173328897Y-95946466D01*
X173363633Y-95927899D01*
X173401326Y-95916465D01*
X173446661Y-95912000D01*
X174533339Y-95912000D01*
X174578674Y-95916465D01*
G37*
G36*
X172419674Y-95898465D02*
G01*
X172457367Y-95909899D01*
X172492103Y-95928466D01*
X172522548Y-95953452D01*
X172547534Y-95983897D01*
X172566101Y-96018633D01*
X172577535Y-96056326D01*
X172582000Y-96101661D01*
X172582000Y-96938339D01*
X172577535Y-96983674D01*
X172566101Y-97021367D01*
X172547534Y-97056103D01*
X172522548Y-97086548D01*
X172492103Y-97111534D01*
X172457367Y-97130101D01*
X172419674Y-97141535D01*
X172374339Y-97146000D01*
X171287661Y-97146000D01*
X171242326Y-97141535D01*
X171204633Y-97130101D01*
X171169897Y-97111534D01*
X171139452Y-97086548D01*
X171114466Y-97056103D01*
X171095899Y-97021367D01*
X171084465Y-96983674D01*
X171080000Y-96938339D01*
X171080000Y-96101661D01*
X171084465Y-96056326D01*
X171095899Y-96018633D01*
X171114466Y-95983897D01*
X171139452Y-95953452D01*
X171169897Y-95928466D01*
X171204633Y-95909899D01*
X171242326Y-95898465D01*
X171287661Y-95894000D01*
X172374339Y-95894000D01*
X172419674Y-95898465D01*
G37*
G36*
X158451674Y-94376465D02*
G01*
X158489367Y-94387899D01*
X158524103Y-94406466D01*
X158554548Y-94431452D01*
X158579534Y-94461897D01*
X158598101Y-94496633D01*
X158609535Y-94534326D01*
X158614000Y-94579661D01*
X158614000Y-95666339D01*
X158609535Y-95711674D01*
X158598101Y-95749367D01*
X158579534Y-95784103D01*
X158554548Y-95814548D01*
X158524103Y-95839534D01*
X158489367Y-95858101D01*
X158451674Y-95869535D01*
X158406339Y-95874000D01*
X157569661Y-95874000D01*
X157524326Y-95869535D01*
X157486633Y-95858101D01*
X157451897Y-95839534D01*
X157421452Y-95814548D01*
X157396466Y-95784103D01*
X157377899Y-95749367D01*
X157366465Y-95711674D01*
X157362000Y-95666339D01*
X157362000Y-94579661D01*
X157366465Y-94534326D01*
X157377899Y-94496633D01*
X157396466Y-94461897D01*
X157421452Y-94431452D01*
X157451897Y-94406466D01*
X157486633Y-94387899D01*
X157524326Y-94376465D01*
X157569661Y-94372000D01*
X158406339Y-94372000D01*
X158451674Y-94376465D01*
G37*
G36*
X156401674Y-94376465D02*
G01*
X156439367Y-94387899D01*
X156474103Y-94406466D01*
X156504548Y-94431452D01*
X156529534Y-94461897D01*
X156548101Y-94496633D01*
X156559535Y-94534326D01*
X156564000Y-94579661D01*
X156564000Y-95666339D01*
X156559535Y-95711674D01*
X156548101Y-95749367D01*
X156529534Y-95784103D01*
X156504548Y-95814548D01*
X156474103Y-95839534D01*
X156439367Y-95858101D01*
X156401674Y-95869535D01*
X156356339Y-95874000D01*
X155519661Y-95874000D01*
X155474326Y-95869535D01*
X155436633Y-95858101D01*
X155401897Y-95839534D01*
X155371452Y-95814548D01*
X155346466Y-95784103D01*
X155327899Y-95749367D01*
X155316465Y-95711674D01*
X155312000Y-95666339D01*
X155312000Y-94579661D01*
X155316465Y-94534326D01*
X155327899Y-94496633D01*
X155346466Y-94461897D01*
X155371452Y-94431452D01*
X155401897Y-94406466D01*
X155436633Y-94387899D01*
X155474326Y-94376465D01*
X155519661Y-94372000D01*
X156356339Y-94372000D01*
X156401674Y-94376465D01*
G37*
G36*
X174578674Y-93866465D02*
G01*
X174616367Y-93877899D01*
X174651103Y-93896466D01*
X174681548Y-93921452D01*
X174706534Y-93951897D01*
X174725101Y-93986633D01*
X174736535Y-94024326D01*
X174741000Y-94069661D01*
X174741000Y-94906339D01*
X174736535Y-94951674D01*
X174725101Y-94989367D01*
X174706534Y-95024103D01*
X174681548Y-95054548D01*
X174651103Y-95079534D01*
X174616367Y-95098101D01*
X174578674Y-95109535D01*
X174533339Y-95114000D01*
X173446661Y-95114000D01*
X173401326Y-95109535D01*
X173363633Y-95098101D01*
X173328897Y-95079534D01*
X173298452Y-95054548D01*
X173273466Y-95024103D01*
X173254899Y-94989367D01*
X173243465Y-94951674D01*
X173239000Y-94906339D01*
X173239000Y-94069661D01*
X173243465Y-94024326D01*
X173254899Y-93986633D01*
X173273466Y-93951897D01*
X173298452Y-93921452D01*
X173328897Y-93896466D01*
X173363633Y-93877899D01*
X173401326Y-93866465D01*
X173446661Y-93862000D01*
X174533339Y-93862000D01*
X174578674Y-93866465D01*
G37*
G36*
X172419674Y-93848465D02*
G01*
X172457367Y-93859899D01*
X172492103Y-93878466D01*
X172522548Y-93903452D01*
X172547534Y-93933897D01*
X172566101Y-93968633D01*
X172577535Y-94006326D01*
X172582000Y-94051661D01*
X172582000Y-94888339D01*
X172577535Y-94933674D01*
X172566101Y-94971367D01*
X172547534Y-95006103D01*
X172522548Y-95036548D01*
X172492103Y-95061534D01*
X172457367Y-95080101D01*
X172419674Y-95091535D01*
X172374339Y-95096000D01*
X171287661Y-95096000D01*
X171242326Y-95091535D01*
X171204633Y-95080101D01*
X171169897Y-95061534D01*
X171139452Y-95036548D01*
X171114466Y-95006103D01*
X171095899Y-94971367D01*
X171084465Y-94933674D01*
X171080000Y-94888339D01*
X171080000Y-94051661D01*
X171084465Y-94006326D01*
X171095899Y-93968633D01*
X171114466Y-93933897D01*
X171139452Y-93903452D01*
X171169897Y-93878466D01*
X171204633Y-93859899D01*
X171242326Y-93848465D01*
X171287661Y-93844000D01*
X172374339Y-93844000D01*
X172419674Y-93848465D01*
G37*
G36*
X158451674Y-91328465D02*
G01*
X158489367Y-91339899D01*
X158524103Y-91358466D01*
X158554548Y-91383452D01*
X158579534Y-91413897D01*
X158598101Y-91448633D01*
X158609535Y-91486326D01*
X158614000Y-91531661D01*
X158614000Y-92618339D01*
X158609535Y-92663674D01*
X158598101Y-92701367D01*
X158579534Y-92736103D01*
X158554548Y-92766548D01*
X158524103Y-92791534D01*
X158489367Y-92810101D01*
X158451674Y-92821535D01*
X158406339Y-92826000D01*
X157569661Y-92826000D01*
X157524326Y-92821535D01*
X157486633Y-92810101D01*
X157451897Y-92791534D01*
X157421452Y-92766548D01*
X157396466Y-92736103D01*
X157377899Y-92701367D01*
X157366465Y-92663674D01*
X157362000Y-92618339D01*
X157362000Y-91531661D01*
X157366465Y-91486326D01*
X157377899Y-91448633D01*
X157396466Y-91413897D01*
X157421452Y-91383452D01*
X157451897Y-91358466D01*
X157486633Y-91339899D01*
X157524326Y-91328465D01*
X157569661Y-91324000D01*
X158406339Y-91324000D01*
X158451674Y-91328465D01*
G37*
G36*
X156401674Y-91328465D02*
G01*
X156439367Y-91339899D01*
X156474103Y-91358466D01*
X156504548Y-91383452D01*
X156529534Y-91413897D01*
X156548101Y-91448633D01*
X156559535Y-91486326D01*
X156564000Y-91531661D01*
X156564000Y-92618339D01*
X156559535Y-92663674D01*
X156548101Y-92701367D01*
X156529534Y-92736103D01*
X156504548Y-92766548D01*
X156474103Y-92791534D01*
X156439367Y-92810101D01*
X156401674Y-92821535D01*
X156356339Y-92826000D01*
X155519661Y-92826000D01*
X155474326Y-92821535D01*
X155436633Y-92810101D01*
X155401897Y-92791534D01*
X155371452Y-92766548D01*
X155346466Y-92736103D01*
X155327899Y-92701367D01*
X155316465Y-92663674D01*
X155312000Y-92618339D01*
X155312000Y-91531661D01*
X155316465Y-91486326D01*
X155327899Y-91448633D01*
X155346466Y-91413897D01*
X155371452Y-91383452D01*
X155401897Y-91358466D01*
X155436633Y-91339899D01*
X155474326Y-91328465D01*
X155519661Y-91324000D01*
X156356339Y-91324000D01*
X156401674Y-91328465D01*
G37*
G36*
X169459928Y-91472764D02*
G01*
X169481009Y-91479160D01*
X169500445Y-91489548D01*
X169517476Y-91503524D01*
X169531452Y-91520555D01*
X169541840Y-91539991D01*
X169548236Y-91561072D01*
X169551000Y-91589140D01*
X169551000Y-92052860D01*
X169548236Y-92080928D01*
X169541840Y-92102009D01*
X169531452Y-92121445D01*
X169517476Y-92138476D01*
X169500445Y-92152452D01*
X169481009Y-92162840D01*
X169459928Y-92169236D01*
X169431860Y-92172000D01*
X167968140Y-92172000D01*
X167940072Y-92169236D01*
X167918991Y-92162840D01*
X167899555Y-92152452D01*
X167882524Y-92138476D01*
X167868548Y-92121445D01*
X167858160Y-92102009D01*
X167851764Y-92080928D01*
X167849000Y-92052860D01*
X167849000Y-91589140D01*
X167851764Y-91561072D01*
X167858160Y-91539991D01*
X167868548Y-91520555D01*
X167882524Y-91503524D01*
X167899555Y-91489548D01*
X167918991Y-91479160D01*
X167940072Y-91472764D01*
X167968140Y-91470000D01*
X169431860Y-91470000D01*
X169459928Y-91472764D01*
G37*
G36*
X162259928Y-91472764D02*
G01*
X162281009Y-91479160D01*
X162300445Y-91489548D01*
X162317476Y-91503524D01*
X162331452Y-91520555D01*
X162341840Y-91539991D01*
X162348236Y-91561072D01*
X162351000Y-91589140D01*
X162351000Y-92052860D01*
X162348236Y-92080928D01*
X162341840Y-92102009D01*
X162331452Y-92121445D01*
X162317476Y-92138476D01*
X162300445Y-92152452D01*
X162281009Y-92162840D01*
X162259928Y-92169236D01*
X162231860Y-92172000D01*
X160768140Y-92172000D01*
X160740072Y-92169236D01*
X160718991Y-92162840D01*
X160699555Y-92152452D01*
X160682524Y-92138476D01*
X160668548Y-92121445D01*
X160658160Y-92102009D01*
X160651764Y-92080928D01*
X160649000Y-92052860D01*
X160649000Y-91589140D01*
X160651764Y-91561072D01*
X160658160Y-91539991D01*
X160668548Y-91520555D01*
X160682524Y-91503524D01*
X160699555Y-91489548D01*
X160718991Y-91479160D01*
X160740072Y-91472764D01*
X160768140Y-91470000D01*
X162231860Y-91470000D01*
X162259928Y-91472764D01*
G37*
G36*
X162259928Y-90202764D02*
G01*
X162281009Y-90209160D01*
X162300445Y-90219548D01*
X162317476Y-90233524D01*
X162331452Y-90250555D01*
X162341840Y-90269991D01*
X162348236Y-90291072D01*
X162351000Y-90319140D01*
X162351000Y-90782860D01*
X162348236Y-90810928D01*
X162341840Y-90832009D01*
X162331452Y-90851445D01*
X162317476Y-90868476D01*
X162300445Y-90882452D01*
X162281009Y-90892840D01*
X162259928Y-90899236D01*
X162231860Y-90902000D01*
X160768140Y-90902000D01*
X160740072Y-90899236D01*
X160718991Y-90892840D01*
X160699555Y-90882452D01*
X160682524Y-90868476D01*
X160668548Y-90851445D01*
X160658160Y-90832009D01*
X160651764Y-90810928D01*
X160649000Y-90782860D01*
X160649000Y-90319140D01*
X160651764Y-90291072D01*
X160658160Y-90269991D01*
X160668548Y-90250555D01*
X160682524Y-90233524D01*
X160699555Y-90219548D01*
X160718991Y-90209160D01*
X160740072Y-90202764D01*
X160768140Y-90200000D01*
X162231860Y-90200000D01*
X162259928Y-90202764D01*
G37*
G36*
X169459928Y-90202764D02*
G01*
X169481009Y-90209160D01*
X169500445Y-90219548D01*
X169517476Y-90233524D01*
X169531452Y-90250555D01*
X169541840Y-90269991D01*
X169548236Y-90291072D01*
X169551000Y-90319140D01*
X169551000Y-90782860D01*
X169548236Y-90810928D01*
X169541840Y-90832009D01*
X169531452Y-90851445D01*
X169517476Y-90868476D01*
X169500445Y-90882452D01*
X169481009Y-90892840D01*
X169459928Y-90899236D01*
X169431860Y-90902000D01*
X167968140Y-90902000D01*
X167940072Y-90899236D01*
X167918991Y-90892840D01*
X167899555Y-90882452D01*
X167882524Y-90868476D01*
X167868548Y-90851445D01*
X167858160Y-90832009D01*
X167851764Y-90810928D01*
X167849000Y-90782860D01*
X167849000Y-90319140D01*
X167851764Y-90291072D01*
X167858160Y-90269991D01*
X167868548Y-90250555D01*
X167882524Y-90233524D01*
X167899555Y-90219548D01*
X167918991Y-90209160D01*
X167940072Y-90202764D01*
X167968140Y-90200000D01*
X169431860Y-90200000D01*
X169459928Y-90202764D01*
G37*
G36*
X156419674Y-89169465D02*
G01*
X156457367Y-89180899D01*
X156492103Y-89199466D01*
X156522548Y-89224452D01*
X156547534Y-89254897D01*
X156566101Y-89289633D01*
X156577535Y-89327326D01*
X156582000Y-89372661D01*
X156582000Y-90459339D01*
X156577535Y-90504674D01*
X156566101Y-90542367D01*
X156547534Y-90577103D01*
X156522548Y-90607548D01*
X156492103Y-90632534D01*
X156457367Y-90651101D01*
X156419674Y-90662535D01*
X156374339Y-90667000D01*
X155537661Y-90667000D01*
X155492326Y-90662535D01*
X155454633Y-90651101D01*
X155419897Y-90632534D01*
X155389452Y-90607548D01*
X155364466Y-90577103D01*
X155345899Y-90542367D01*
X155334465Y-90504674D01*
X155330000Y-90459339D01*
X155330000Y-89372661D01*
X155334465Y-89327326D01*
X155345899Y-89289633D01*
X155364466Y-89254897D01*
X155389452Y-89224452D01*
X155419897Y-89199466D01*
X155454633Y-89180899D01*
X155492326Y-89169465D01*
X155537661Y-89165000D01*
X156374339Y-89165000D01*
X156419674Y-89169465D01*
G37*
G36*
X158469674Y-89169465D02*
G01*
X158507367Y-89180899D01*
X158542103Y-89199466D01*
X158572548Y-89224452D01*
X158597534Y-89254897D01*
X158616101Y-89289633D01*
X158627535Y-89327326D01*
X158632000Y-89372661D01*
X158632000Y-90459339D01*
X158627535Y-90504674D01*
X158616101Y-90542367D01*
X158597534Y-90577103D01*
X158572548Y-90607548D01*
X158542103Y-90632534D01*
X158507367Y-90651101D01*
X158469674Y-90662535D01*
X158424339Y-90667000D01*
X157587661Y-90667000D01*
X157542326Y-90662535D01*
X157504633Y-90651101D01*
X157469897Y-90632534D01*
X157439452Y-90607548D01*
X157414466Y-90577103D01*
X157395899Y-90542367D01*
X157384465Y-90504674D01*
X157380000Y-90459339D01*
X157380000Y-89372661D01*
X157384465Y-89327326D01*
X157395899Y-89289633D01*
X157414466Y-89254897D01*
X157439452Y-89224452D01*
X157469897Y-89199466D01*
X157504633Y-89180899D01*
X157542326Y-89169465D01*
X157587661Y-89165000D01*
X158424339Y-89165000D01*
X158469674Y-89169465D01*
G37*
G36*
X169459928Y-88932764D02*
G01*
X169481009Y-88939160D01*
X169500445Y-88949548D01*
X169517476Y-88963524D01*
X169531452Y-88980555D01*
X169541840Y-88999991D01*
X169548236Y-89021072D01*
X169551000Y-89049140D01*
X169551000Y-89512860D01*
X169548236Y-89540928D01*
X169541840Y-89562009D01*
X169531452Y-89581445D01*
X169517476Y-89598476D01*
X169500445Y-89612452D01*
X169481009Y-89622840D01*
X169459928Y-89629236D01*
X169431860Y-89632000D01*
X167968140Y-89632000D01*
X167940072Y-89629236D01*
X167918991Y-89622840D01*
X167899555Y-89612452D01*
X167882524Y-89598476D01*
X167868548Y-89581445D01*
X167858160Y-89562009D01*
X167851764Y-89540928D01*
X167849000Y-89512860D01*
X167849000Y-89049140D01*
X167851764Y-89021072D01*
X167858160Y-88999991D01*
X167868548Y-88980555D01*
X167882524Y-88963524D01*
X167899555Y-88949548D01*
X167918991Y-88939160D01*
X167940072Y-88932764D01*
X167968140Y-88930000D01*
X169431860Y-88930000D01*
X169459928Y-88932764D01*
G37*
G36*
X162259928Y-88932764D02*
G01*
X162281009Y-88939160D01*
X162300445Y-88949548D01*
X162317476Y-88963524D01*
X162331452Y-88980555D01*
X162341840Y-88999991D01*
X162348236Y-89021072D01*
X162351000Y-89049140D01*
X162351000Y-89512860D01*
X162348236Y-89540928D01*
X162341840Y-89562009D01*
X162331452Y-89581445D01*
X162317476Y-89598476D01*
X162300445Y-89612452D01*
X162281009Y-89622840D01*
X162259928Y-89629236D01*
X162231860Y-89632000D01*
X160768140Y-89632000D01*
X160740072Y-89629236D01*
X160718991Y-89622840D01*
X160699555Y-89612452D01*
X160682524Y-89598476D01*
X160668548Y-89581445D01*
X160658160Y-89562009D01*
X160651764Y-89540928D01*
X160649000Y-89512860D01*
X160649000Y-89049140D01*
X160651764Y-89021072D01*
X160658160Y-88999991D01*
X160668548Y-88980555D01*
X160682524Y-88963524D01*
X160699555Y-88949548D01*
X160718991Y-88939160D01*
X160740072Y-88932764D01*
X160768140Y-88930000D01*
X162231860Y-88930000D01*
X162259928Y-88932764D01*
G37*
G36*
X172285674Y-87264465D02*
G01*
X172323367Y-87275899D01*
X172358103Y-87294466D01*
X172388548Y-87319452D01*
X172413534Y-87349897D01*
X172432101Y-87384633D01*
X172443535Y-87422326D01*
X172448000Y-87467661D01*
X172448000Y-88554339D01*
X172443535Y-88599674D01*
X172432101Y-88637367D01*
X172413534Y-88672103D01*
X172388548Y-88702548D01*
X172358103Y-88727534D01*
X172323367Y-88746101D01*
X172285674Y-88757535D01*
X172240339Y-88762000D01*
X171403661Y-88762000D01*
X171358326Y-88757535D01*
X171320633Y-88746101D01*
X171285897Y-88727534D01*
X171255452Y-88702548D01*
X171230466Y-88672103D01*
X171211899Y-88637367D01*
X171200465Y-88599674D01*
X171196000Y-88554339D01*
X171196000Y-87467661D01*
X171200465Y-87422326D01*
X171211899Y-87384633D01*
X171230466Y-87349897D01*
X171255452Y-87319452D01*
X171285897Y-87294466D01*
X171320633Y-87275899D01*
X171358326Y-87264465D01*
X171403661Y-87260000D01*
X172240339Y-87260000D01*
X172285674Y-87264465D01*
G37*
G36*
X174335674Y-87264465D02*
G01*
X174373367Y-87275899D01*
X174408103Y-87294466D01*
X174438548Y-87319452D01*
X174463534Y-87349897D01*
X174482101Y-87384633D01*
X174493535Y-87422326D01*
X174498000Y-87467661D01*
X174498000Y-88554339D01*
X174493535Y-88599674D01*
X174482101Y-88637367D01*
X174463534Y-88672103D01*
X174438548Y-88702548D01*
X174408103Y-88727534D01*
X174373367Y-88746101D01*
X174335674Y-88757535D01*
X174290339Y-88762000D01*
X173453661Y-88762000D01*
X173408326Y-88757535D01*
X173370633Y-88746101D01*
X173335897Y-88727534D01*
X173305452Y-88702548D01*
X173280466Y-88672103D01*
X173261899Y-88637367D01*
X173250465Y-88599674D01*
X173246000Y-88554339D01*
X173246000Y-87467661D01*
X173250465Y-87422326D01*
X173261899Y-87384633D01*
X173280466Y-87349897D01*
X173305452Y-87319452D01*
X173335897Y-87294466D01*
X173370633Y-87275899D01*
X173408326Y-87264465D01*
X173453661Y-87260000D01*
X174290339Y-87260000D01*
X174335674Y-87264465D01*
G37*
G36*
X158469674Y-87010465D02*
G01*
X158507367Y-87021899D01*
X158542103Y-87040466D01*
X158572548Y-87065452D01*
X158597534Y-87095897D01*
X158616101Y-87130633D01*
X158627535Y-87168326D01*
X158632000Y-87213661D01*
X158632000Y-88300339D01*
X158627535Y-88345674D01*
X158616101Y-88383367D01*
X158597534Y-88418103D01*
X158572548Y-88448548D01*
X158542103Y-88473534D01*
X158507367Y-88492101D01*
X158469674Y-88503535D01*
X158424339Y-88508000D01*
X157587661Y-88508000D01*
X157542326Y-88503535D01*
X157504633Y-88492101D01*
X157469897Y-88473534D01*
X157439452Y-88448548D01*
X157414466Y-88418103D01*
X157395899Y-88383367D01*
X157384465Y-88345674D01*
X157380000Y-88300339D01*
X157380000Y-87213661D01*
X157384465Y-87168326D01*
X157395899Y-87130633D01*
X157414466Y-87095897D01*
X157439452Y-87065452D01*
X157469897Y-87040466D01*
X157504633Y-87021899D01*
X157542326Y-87010465D01*
X157587661Y-87006000D01*
X158424339Y-87006000D01*
X158469674Y-87010465D01*
G37*
G36*
X156419674Y-87010465D02*
G01*
X156457367Y-87021899D01*
X156492103Y-87040466D01*
X156522548Y-87065452D01*
X156547534Y-87095897D01*
X156566101Y-87130633D01*
X156577535Y-87168326D01*
X156582000Y-87213661D01*
X156582000Y-88300339D01*
X156577535Y-88345674D01*
X156566101Y-88383367D01*
X156547534Y-88418103D01*
X156522548Y-88448548D01*
X156492103Y-88473534D01*
X156457367Y-88492101D01*
X156419674Y-88503535D01*
X156374339Y-88508000D01*
X155537661Y-88508000D01*
X155492326Y-88503535D01*
X155454633Y-88492101D01*
X155419897Y-88473534D01*
X155389452Y-88448548D01*
X155364466Y-88418103D01*
X155345899Y-88383367D01*
X155334465Y-88345674D01*
X155330000Y-88300339D01*
X155330000Y-87213661D01*
X155334465Y-87168326D01*
X155345899Y-87130633D01*
X155364466Y-87095897D01*
X155389452Y-87065452D01*
X155419897Y-87040466D01*
X155454633Y-87021899D01*
X155492326Y-87010465D01*
X155537661Y-87006000D01*
X156374339Y-87006000D01*
X156419674Y-87010465D01*
G37*
G36*
X169459928Y-87662764D02*
G01*
X169481009Y-87669160D01*
X169500445Y-87679548D01*
X169517476Y-87693524D01*
X169531452Y-87710555D01*
X169541840Y-87729991D01*
X169548236Y-87751072D01*
X169551000Y-87779140D01*
X169551000Y-88242860D01*
X169548236Y-88270928D01*
X169541840Y-88292009D01*
X169531452Y-88311445D01*
X169517476Y-88328476D01*
X169500445Y-88342452D01*
X169481009Y-88352840D01*
X169459928Y-88359236D01*
X169431860Y-88362000D01*
X167968140Y-88362000D01*
X167940072Y-88359236D01*
X167918991Y-88352840D01*
X167899555Y-88342452D01*
X167882524Y-88328476D01*
X167868548Y-88311445D01*
X167858160Y-88292009D01*
X167851764Y-88270928D01*
X167849000Y-88242860D01*
X167849000Y-87779140D01*
X167851764Y-87751072D01*
X167858160Y-87729991D01*
X167868548Y-87710555D01*
X167882524Y-87693524D01*
X167899555Y-87679548D01*
X167918991Y-87669160D01*
X167940072Y-87662764D01*
X167968140Y-87660000D01*
X169431860Y-87660000D01*
X169459928Y-87662764D01*
G37*
G36*
X162259928Y-87662764D02*
G01*
X162281009Y-87669160D01*
X162300445Y-87679548D01*
X162317476Y-87693524D01*
X162331452Y-87710555D01*
X162341840Y-87729991D01*
X162348236Y-87751072D01*
X162351000Y-87779140D01*
X162351000Y-88242860D01*
X162348236Y-88270928D01*
X162341840Y-88292009D01*
X162331452Y-88311445D01*
X162317476Y-88328476D01*
X162300445Y-88342452D01*
X162281009Y-88352840D01*
X162259928Y-88359236D01*
X162231860Y-88362000D01*
X160768140Y-88362000D01*
X160740072Y-88359236D01*
X160718991Y-88352840D01*
X160699555Y-88342452D01*
X160682524Y-88328476D01*
X160668548Y-88311445D01*
X160658160Y-88292009D01*
X160651764Y-88270928D01*
X160649000Y-88242860D01*
X160649000Y-87779140D01*
X160651764Y-87751072D01*
X160658160Y-87729991D01*
X160668548Y-87710555D01*
X160682524Y-87693524D01*
X160699555Y-87679548D01*
X160718991Y-87669160D01*
X160740072Y-87662764D01*
X160768140Y-87660000D01*
X162231860Y-87660000D01*
X162259928Y-87662764D01*
G37*
G36*
X162533674Y-83073465D02*
G01*
X162571367Y-83084899D01*
X162606103Y-83103466D01*
X162636548Y-83128452D01*
X162661534Y-83158897D01*
X162680101Y-83193633D01*
X162691535Y-83231326D01*
X162696000Y-83276661D01*
X162696000Y-84363339D01*
X162691535Y-84408674D01*
X162680101Y-84446367D01*
X162661534Y-84481103D01*
X162636548Y-84511548D01*
X162606103Y-84536534D01*
X162571367Y-84555101D01*
X162533674Y-84566535D01*
X162488339Y-84571000D01*
X161651661Y-84571000D01*
X161606326Y-84566535D01*
X161568633Y-84555101D01*
X161533897Y-84536534D01*
X161503452Y-84511548D01*
X161478466Y-84481103D01*
X161459899Y-84446367D01*
X161448465Y-84408674D01*
X161444000Y-84363339D01*
X161444000Y-83276661D01*
X161448465Y-83231326D01*
X161459899Y-83193633D01*
X161478466Y-83158897D01*
X161503452Y-83128452D01*
X161533897Y-83103466D01*
X161568633Y-83084899D01*
X161606326Y-83073465D01*
X161651661Y-83069000D01*
X162488339Y-83069000D01*
X162533674Y-83073465D01*
G37*
G36*
X164402674Y-83073465D02*
G01*
X164440367Y-83084899D01*
X164475103Y-83103466D01*
X164505548Y-83128452D01*
X164530534Y-83158897D01*
X164549101Y-83193633D01*
X164560535Y-83231326D01*
X164565000Y-83276661D01*
X164565000Y-84363339D01*
X164560535Y-84408674D01*
X164549101Y-84446367D01*
X164530534Y-84481103D01*
X164505548Y-84511548D01*
X164475103Y-84536534D01*
X164440367Y-84555101D01*
X164402674Y-84566535D01*
X164357339Y-84571000D01*
X163520661Y-84571000D01*
X163475326Y-84566535D01*
X163437633Y-84555101D01*
X163402897Y-84536534D01*
X163372452Y-84511548D01*
X163347466Y-84481103D01*
X163328899Y-84446367D01*
X163317465Y-84408674D01*
X163313000Y-84363339D01*
X163313000Y-83276661D01*
X163317465Y-83231326D01*
X163328899Y-83193633D01*
X163347466Y-83158897D01*
X163372452Y-83128452D01*
X163402897Y-83103466D01*
X163437633Y-83084899D01*
X163475326Y-83073465D01*
X163520661Y-83069000D01*
X164357339Y-83069000D01*
X164402674Y-83073465D01*
G37*
G36*
X160483674Y-83073465D02*
G01*
X160521367Y-83084899D01*
X160556103Y-83103466D01*
X160586548Y-83128452D01*
X160611534Y-83158897D01*
X160630101Y-83193633D01*
X160641535Y-83231326D01*
X160646000Y-83276661D01*
X160646000Y-84363339D01*
X160641535Y-84408674D01*
X160630101Y-84446367D01*
X160611534Y-84481103D01*
X160586548Y-84511548D01*
X160556103Y-84536534D01*
X160521367Y-84555101D01*
X160483674Y-84566535D01*
X160438339Y-84571000D01*
X159601661Y-84571000D01*
X159556326Y-84566535D01*
X159518633Y-84555101D01*
X159483897Y-84536534D01*
X159453452Y-84511548D01*
X159428466Y-84481103D01*
X159409899Y-84446367D01*
X159398465Y-84408674D01*
X159394000Y-84363339D01*
X159394000Y-83276661D01*
X159398465Y-83231326D01*
X159409899Y-83193633D01*
X159428466Y-83158897D01*
X159453452Y-83128452D01*
X159483897Y-83103466D01*
X159518633Y-83084899D01*
X159556326Y-83073465D01*
X159601661Y-83069000D01*
X160438339Y-83069000D01*
X160483674Y-83073465D01*
G37*
G36*
X166452674Y-83073465D02*
G01*
X166490367Y-83084899D01*
X166525103Y-83103466D01*
X166555548Y-83128452D01*
X166580534Y-83158897D01*
X166599101Y-83193633D01*
X166610535Y-83231326D01*
X166615000Y-83276661D01*
X166615000Y-84363339D01*
X166610535Y-84408674D01*
X166599101Y-84446367D01*
X166580534Y-84481103D01*
X166555548Y-84511548D01*
X166525103Y-84536534D01*
X166490367Y-84555101D01*
X166452674Y-84566535D01*
X166407339Y-84571000D01*
X165570661Y-84571000D01*
X165525326Y-84566535D01*
X165487633Y-84555101D01*
X165452897Y-84536534D01*
X165422452Y-84511548D01*
X165397466Y-84481103D01*
X165378899Y-84446367D01*
X165367465Y-84408674D01*
X165363000Y-84363339D01*
X165363000Y-83276661D01*
X165367465Y-83231326D01*
X165378899Y-83193633D01*
X165397466Y-83158897D01*
X165422452Y-83128452D01*
X165452897Y-83103466D01*
X165487633Y-83084899D01*
X165525326Y-83073465D01*
X165570661Y-83069000D01*
X166407339Y-83069000D01*
X166452674Y-83073465D01*
G37*
G36*
X168339674Y-83073465D02*
G01*
X168377367Y-83084899D01*
X168412103Y-83103466D01*
X168442548Y-83128452D01*
X168467534Y-83158897D01*
X168486101Y-83193633D01*
X168497535Y-83231326D01*
X168502000Y-83276661D01*
X168502000Y-84363339D01*
X168497535Y-84408674D01*
X168486101Y-84446367D01*
X168467534Y-84481103D01*
X168442548Y-84511548D01*
X168412103Y-84536534D01*
X168377367Y-84555101D01*
X168339674Y-84566535D01*
X168294339Y-84571000D01*
X167457661Y-84571000D01*
X167412326Y-84566535D01*
X167374633Y-84555101D01*
X167339897Y-84536534D01*
X167309452Y-84511548D01*
X167284466Y-84481103D01*
X167265899Y-84446367D01*
X167254465Y-84408674D01*
X167250000Y-84363339D01*
X167250000Y-83276661D01*
X167254465Y-83231326D01*
X167265899Y-83193633D01*
X167284466Y-83158897D01*
X167309452Y-83128452D01*
X167339897Y-83103466D01*
X167374633Y-83084899D01*
X167412326Y-83073465D01*
X167457661Y-83069000D01*
X168294339Y-83069000D01*
X168339674Y-83073465D01*
G37*
G36*
X170389674Y-83073465D02*
G01*
X170427367Y-83084899D01*
X170462103Y-83103466D01*
X170492548Y-83128452D01*
X170517534Y-83158897D01*
X170536101Y-83193633D01*
X170547535Y-83231326D01*
X170552000Y-83276661D01*
X170552000Y-84363339D01*
X170547535Y-84408674D01*
X170536101Y-84446367D01*
X170517534Y-84481103D01*
X170492548Y-84511548D01*
X170462103Y-84536534D01*
X170427367Y-84555101D01*
X170389674Y-84566535D01*
X170344339Y-84571000D01*
X169507661Y-84571000D01*
X169462326Y-84566535D01*
X169424633Y-84555101D01*
X169389897Y-84536534D01*
X169359452Y-84511548D01*
X169334466Y-84481103D01*
X169315899Y-84446367D01*
X169304465Y-84408674D01*
X169300000Y-84363339D01*
X169300000Y-83276661D01*
X169304465Y-83231326D01*
X169315899Y-83193633D01*
X169334466Y-83158897D01*
X169359452Y-83128452D01*
X169389897Y-83103466D01*
X169424633Y-83084899D01*
X169462326Y-83073465D01*
X169507661Y-83069000D01*
X170344339Y-83069000D01*
X170389674Y-83073465D01*
G37*
G36*
X160483674Y-80914465D02*
G01*
X160521367Y-80925899D01*
X160556103Y-80944466D01*
X160586548Y-80969452D01*
X160611534Y-80999897D01*
X160630101Y-81034633D01*
X160641535Y-81072326D01*
X160646000Y-81117661D01*
X160646000Y-82204339D01*
X160641535Y-82249674D01*
X160630101Y-82287367D01*
X160611534Y-82322103D01*
X160586548Y-82352548D01*
X160556103Y-82377534D01*
X160521367Y-82396101D01*
X160483674Y-82407535D01*
X160438339Y-82412000D01*
X159601661Y-82412000D01*
X159556326Y-82407535D01*
X159518633Y-82396101D01*
X159483897Y-82377534D01*
X159453452Y-82352548D01*
X159428466Y-82322103D01*
X159409899Y-82287367D01*
X159398465Y-82249674D01*
X159394000Y-82204339D01*
X159394000Y-81117661D01*
X159398465Y-81072326D01*
X159409899Y-81034633D01*
X159428466Y-80999897D01*
X159453452Y-80969452D01*
X159483897Y-80944466D01*
X159518633Y-80925899D01*
X159556326Y-80914465D01*
X159601661Y-80910000D01*
X160438339Y-80910000D01*
X160483674Y-80914465D01*
G37*
G36*
X168357674Y-80914465D02*
G01*
X168395367Y-80925899D01*
X168430103Y-80944466D01*
X168460548Y-80969452D01*
X168485534Y-80999897D01*
X168504101Y-81034633D01*
X168515535Y-81072326D01*
X168520000Y-81117661D01*
X168520000Y-82204339D01*
X168515535Y-82249674D01*
X168504101Y-82287367D01*
X168485534Y-82322103D01*
X168460548Y-82352548D01*
X168430103Y-82377534D01*
X168395367Y-82396101D01*
X168357674Y-82407535D01*
X168312339Y-82412000D01*
X167475661Y-82412000D01*
X167430326Y-82407535D01*
X167392633Y-82396101D01*
X167357897Y-82377534D01*
X167327452Y-82352548D01*
X167302466Y-82322103D01*
X167283899Y-82287367D01*
X167272465Y-82249674D01*
X167268000Y-82204339D01*
X167268000Y-81117661D01*
X167272465Y-81072326D01*
X167283899Y-81034633D01*
X167302466Y-80999897D01*
X167327452Y-80969452D01*
X167357897Y-80944466D01*
X167392633Y-80925899D01*
X167430326Y-80914465D01*
X167475661Y-80910000D01*
X168312339Y-80910000D01*
X168357674Y-80914465D01*
G37*
G36*
X166452674Y-80914465D02*
G01*
X166490367Y-80925899D01*
X166525103Y-80944466D01*
X166555548Y-80969452D01*
X166580534Y-80999897D01*
X166599101Y-81034633D01*
X166610535Y-81072326D01*
X166615000Y-81117661D01*
X166615000Y-82204339D01*
X166610535Y-82249674D01*
X166599101Y-82287367D01*
X166580534Y-82322103D01*
X166555548Y-82352548D01*
X166525103Y-82377534D01*
X166490367Y-82396101D01*
X166452674Y-82407535D01*
X166407339Y-82412000D01*
X165570661Y-82412000D01*
X165525326Y-82407535D01*
X165487633Y-82396101D01*
X165452897Y-82377534D01*
X165422452Y-82352548D01*
X165397466Y-82322103D01*
X165378899Y-82287367D01*
X165367465Y-82249674D01*
X165363000Y-82204339D01*
X165363000Y-81117661D01*
X165367465Y-81072326D01*
X165378899Y-81034633D01*
X165397466Y-80999897D01*
X165422452Y-80969452D01*
X165452897Y-80944466D01*
X165487633Y-80925899D01*
X165525326Y-80914465D01*
X165570661Y-80910000D01*
X166407339Y-80910000D01*
X166452674Y-80914465D01*
G37*
G36*
X164402674Y-80914465D02*
G01*
X164440367Y-80925899D01*
X164475103Y-80944466D01*
X164505548Y-80969452D01*
X164530534Y-80999897D01*
X164549101Y-81034633D01*
X164560535Y-81072326D01*
X164565000Y-81117661D01*
X164565000Y-82204339D01*
X164560535Y-82249674D01*
X164549101Y-82287367D01*
X164530534Y-82322103D01*
X164505548Y-82352548D01*
X164475103Y-82377534D01*
X164440367Y-82396101D01*
X164402674Y-82407535D01*
X164357339Y-82412000D01*
X163520661Y-82412000D01*
X163475326Y-82407535D01*
X163437633Y-82396101D01*
X163402897Y-82377534D01*
X163372452Y-82352548D01*
X163347466Y-82322103D01*
X163328899Y-82287367D01*
X163317465Y-82249674D01*
X163313000Y-82204339D01*
X163313000Y-81117661D01*
X163317465Y-81072326D01*
X163328899Y-81034633D01*
X163347466Y-80999897D01*
X163372452Y-80969452D01*
X163402897Y-80944466D01*
X163437633Y-80925899D01*
X163475326Y-80914465D01*
X163520661Y-80910000D01*
X164357339Y-80910000D01*
X164402674Y-80914465D01*
G37*
G36*
X170407674Y-80914465D02*
G01*
X170445367Y-80925899D01*
X170480103Y-80944466D01*
X170510548Y-80969452D01*
X170535534Y-80999897D01*
X170554101Y-81034633D01*
X170565535Y-81072326D01*
X170570000Y-81117661D01*
X170570000Y-82204339D01*
X170565535Y-82249674D01*
X170554101Y-82287367D01*
X170535534Y-82322103D01*
X170510548Y-82352548D01*
X170480103Y-82377534D01*
X170445367Y-82396101D01*
X170407674Y-82407535D01*
X170362339Y-82412000D01*
X169525661Y-82412000D01*
X169480326Y-82407535D01*
X169442633Y-82396101D01*
X169407897Y-82377534D01*
X169377452Y-82352548D01*
X169352466Y-82322103D01*
X169333899Y-82287367D01*
X169322465Y-82249674D01*
X169318000Y-82204339D01*
X169318000Y-81117661D01*
X169322465Y-81072326D01*
X169333899Y-81034633D01*
X169352466Y-80999897D01*
X169377452Y-80969452D01*
X169407897Y-80944466D01*
X169442633Y-80925899D01*
X169480326Y-80914465D01*
X169525661Y-80910000D01*
X170362339Y-80910000D01*
X170407674Y-80914465D01*
G37*
G36*
X162533674Y-80914465D02*
G01*
X162571367Y-80925899D01*
X162606103Y-80944466D01*
X162636548Y-80969452D01*
X162661534Y-80999897D01*
X162680101Y-81034633D01*
X162691535Y-81072326D01*
X162696000Y-81117661D01*
X162696000Y-82204339D01*
X162691535Y-82249674D01*
X162680101Y-82287367D01*
X162661534Y-82322103D01*
X162636548Y-82352548D01*
X162606103Y-82377534D01*
X162571367Y-82396101D01*
X162533674Y-82407535D01*
X162488339Y-82412000D01*
X161651661Y-82412000D01*
X161606326Y-82407535D01*
X161568633Y-82396101D01*
X161533897Y-82377534D01*
X161503452Y-82352548D01*
X161478466Y-82322103D01*
X161459899Y-82287367D01*
X161448465Y-82249674D01*
X161444000Y-82204339D01*
X161444000Y-81117661D01*
X161448465Y-81072326D01*
X161459899Y-81034633D01*
X161478466Y-80999897D01*
X161503452Y-80969452D01*
X161533897Y-80944466D01*
X161568633Y-80925899D01*
X161606326Y-80914465D01*
X161651661Y-80910000D01*
X162488339Y-80910000D01*
X162533674Y-80914465D01*
G37*
G36*
X163461000Y-78498000D02*
G01*
X161659000Y-78498000D01*
X161659000Y-76696000D01*
X163461000Y-76696000D01*
X163461000Y-78498000D01*
G37*
G36*
X165213512Y-76700927D02*
G01*
X165362812Y-76730624D01*
X165526784Y-76798544D01*
X165674354Y-76897147D01*
X165799853Y-77022646D01*
X165898456Y-77170216D01*
X165966376Y-77334188D01*
X166001000Y-77508259D01*
X166001000Y-77685741D01*
X165966376Y-77859812D01*
X165898456Y-78023784D01*
X165799853Y-78171354D01*
X165674354Y-78296853D01*
X165526784Y-78395456D01*
X165362812Y-78463376D01*
X165213512Y-78493073D01*
X165188742Y-78498000D01*
X165011258Y-78498000D01*
X164986488Y-78493073D01*
X164837188Y-78463376D01*
X164673216Y-78395456D01*
X164525646Y-78296853D01*
X164400147Y-78171354D01*
X164301544Y-78023784D01*
X164233624Y-77859812D01*
X164199000Y-77685741D01*
X164199000Y-77508259D01*
X164233624Y-77334188D01*
X164301544Y-77170216D01*
X164400147Y-77022646D01*
X164525646Y-76897147D01*
X164673216Y-76798544D01*
X164837188Y-76730624D01*
X164986488Y-76700927D01*
X165011258Y-76696000D01*
X165188742Y-76696000D01*
X165213512Y-76700927D01*
G37*
G36*
X167753512Y-76700927D02*
G01*
X167902812Y-76730624D01*
X168066784Y-76798544D01*
X168214354Y-76897147D01*
X168339853Y-77022646D01*
X168438456Y-77170216D01*
X168506376Y-77334188D01*
X168541000Y-77508259D01*
X168541000Y-77685741D01*
X168506376Y-77859812D01*
X168438456Y-78023784D01*
X168339853Y-78171354D01*
X168214354Y-78296853D01*
X168066784Y-78395456D01*
X167902812Y-78463376D01*
X167753512Y-78493073D01*
X167728742Y-78498000D01*
X167551258Y-78498000D01*
X167526488Y-78493073D01*
X167377188Y-78463376D01*
X167213216Y-78395456D01*
X167065646Y-78296853D01*
X166940147Y-78171354D01*
X166841544Y-78023784D01*
X166773624Y-77859812D01*
X166739000Y-77685741D01*
X166739000Y-77508259D01*
X166773624Y-77334188D01*
X166841544Y-77170216D01*
X166940147Y-77022646D01*
X167065646Y-76897147D01*
X167213216Y-76798544D01*
X167377188Y-76730624D01*
X167526488Y-76700927D01*
X167551258Y-76696000D01*
X167728742Y-76696000D01*
X167753512Y-76700927D01*
G37*
M02*
