G04 #@! TF.GenerationSoftware,KiCad,Pcbnew,(5.1.5)-3*
G04 #@! TF.CreationDate,2019-12-30T09:48:32+04:00*
G04 #@! TF.ProjectId,ad8066_filter,61643830-3636-45f6-9669-6c7465722e6b,rev?*
G04 #@! TF.SameCoordinates,Original*
G04 #@! TF.FileFunction,Copper,L2,Bot*
G04 #@! TF.FilePolarity,Positive*
%FSLAX46Y46*%
G04 Gerber Fmt 4.6, Leading zero omitted, Abs format (unit mm)*
G04 Created by KiCad (PCBNEW (5.1.5)-3) date 2019-12-30 09:48:32*
%MOMM*%
%LPD*%
G04 APERTURE LIST*
%ADD10O,1.700000X1.700000*%
%ADD11R,1.700000X1.700000*%
%ADD12C,0.800000*%
%ADD13C,0.762000*%
%ADD14C,0.254000*%
G04 APERTURE END LIST*
D10*
X167640000Y-77597000D03*
X165100000Y-77597000D03*
D11*
X162560000Y-77597000D03*
D10*
X167640000Y-100330000D03*
X165100000Y-100330000D03*
D11*
X162560000Y-100330000D03*
D12*
X168783000Y-88011000D03*
X173863000Y-88011000D03*
X157988000Y-97155000D03*
X157988000Y-95123000D03*
X173990000Y-96538000D03*
X161500000Y-91821000D03*
X171831000Y-94470000D03*
X171822000Y-88011000D03*
D13*
X166808000Y-94470000D02*
X171131000Y-94470000D01*
X171131000Y-94470000D02*
X171831000Y-94470000D01*
X162560000Y-98718000D02*
X166808000Y-94470000D01*
X162560000Y-100330000D02*
X162560000Y-98718000D01*
X171831000Y-88020000D02*
X171822000Y-88011000D01*
X171831000Y-94470000D02*
X171831000Y-88020000D01*
X171822000Y-88011000D02*
X168783000Y-88011000D01*
D14*
G36*
X161071928Y-78447000D02*
G01*
X161084188Y-78571482D01*
X161120498Y-78691180D01*
X161179463Y-78801494D01*
X161258815Y-78898185D01*
X161355506Y-78977537D01*
X161465820Y-79036502D01*
X161585518Y-79072812D01*
X161710000Y-79085072D01*
X163410000Y-79085072D01*
X163534482Y-79072812D01*
X163654180Y-79036502D01*
X163764494Y-78977537D01*
X163861185Y-78898185D01*
X163940537Y-78801494D01*
X163999502Y-78691180D01*
X164023966Y-78610534D01*
X164099731Y-78694588D01*
X164333080Y-78868641D01*
X164595901Y-78993825D01*
X164743110Y-79038476D01*
X164973000Y-78917155D01*
X164973000Y-77724000D01*
X164953000Y-77724000D01*
X164953000Y-77597000D01*
X165247000Y-77597000D01*
X165247000Y-77724000D01*
X165227000Y-77724000D01*
X165227000Y-78917155D01*
X165456890Y-79038476D01*
X165604099Y-78993825D01*
X165866920Y-78868641D01*
X166100269Y-78694588D01*
X166295178Y-78478355D01*
X166364805Y-78361466D01*
X166486525Y-78543632D01*
X166693368Y-78750475D01*
X166936589Y-78912990D01*
X167206842Y-79024932D01*
X167493740Y-79082000D01*
X167786260Y-79082000D01*
X168073158Y-79024932D01*
X168343411Y-78912990D01*
X168586632Y-78750475D01*
X168793475Y-78543632D01*
X168955990Y-78300411D01*
X169067932Y-78030158D01*
X169125000Y-77743260D01*
X169125000Y-77597000D01*
X176403000Y-77597000D01*
X176403000Y-100203000D01*
X169125000Y-100203000D01*
X169125000Y-100202998D01*
X168960815Y-100202998D01*
X169081481Y-99973109D01*
X168984157Y-99698748D01*
X168835178Y-99448645D01*
X168640269Y-99232412D01*
X168406920Y-99058359D01*
X168144099Y-98933175D01*
X167996890Y-98888524D01*
X167767000Y-99009845D01*
X167767000Y-100203000D01*
X167513000Y-100203000D01*
X167513000Y-99009845D01*
X167283110Y-98888524D01*
X167135901Y-98933175D01*
X166873080Y-99058359D01*
X166639731Y-99232412D01*
X166444822Y-99448645D01*
X166375195Y-99565534D01*
X166253475Y-99383368D01*
X166046632Y-99176525D01*
X165803411Y-99014010D01*
X165533158Y-98902068D01*
X165246260Y-98845000D01*
X164953740Y-98845000D01*
X164666842Y-98902068D01*
X164396589Y-99014010D01*
X164153368Y-99176525D01*
X164021513Y-99308380D01*
X163999502Y-99235820D01*
X163940537Y-99125506D01*
X163861185Y-99028815D01*
X163764979Y-98949861D01*
X167228841Y-95486000D01*
X171633541Y-95486000D01*
X171729061Y-95505000D01*
X171932939Y-95505000D01*
X172132898Y-95465226D01*
X172321256Y-95387205D01*
X172490774Y-95273937D01*
X172634937Y-95129774D01*
X172748205Y-94960256D01*
X172826226Y-94771898D01*
X172866000Y-94571939D01*
X172866000Y-94368061D01*
X172847000Y-94272541D01*
X172847000Y-88163213D01*
X172857000Y-88112939D01*
X172857000Y-87909061D01*
X172817226Y-87709102D01*
X172739205Y-87520744D01*
X172625937Y-87351226D01*
X172481774Y-87207063D01*
X172312256Y-87093795D01*
X172123898Y-87015774D01*
X171923939Y-86976000D01*
X171720061Y-86976000D01*
X171624541Y-86995000D01*
X168980459Y-86995000D01*
X168884939Y-86976000D01*
X168681061Y-86976000D01*
X168481102Y-87015774D01*
X168292744Y-87093795D01*
X168123226Y-87207063D01*
X167979063Y-87351226D01*
X167865795Y-87520744D01*
X167787774Y-87709102D01*
X167748000Y-87909061D01*
X167748000Y-88112939D01*
X167787774Y-88312898D01*
X167865795Y-88501256D01*
X167979063Y-88670774D01*
X168123226Y-88814937D01*
X168292744Y-88928205D01*
X168481102Y-89006226D01*
X168681061Y-89046000D01*
X168884939Y-89046000D01*
X168980459Y-89027000D01*
X170815001Y-89027000D01*
X170815000Y-93454000D01*
X166857893Y-93454000D01*
X166807999Y-93449086D01*
X166758105Y-93454000D01*
X166758098Y-93454000D01*
X166608829Y-93468702D01*
X166417313Y-93526798D01*
X166240810Y-93621140D01*
X166086104Y-93748104D01*
X166054292Y-93786867D01*
X161876868Y-97964292D01*
X161838105Y-97996104D01*
X161711141Y-98150810D01*
X161616799Y-98327313D01*
X161558702Y-98518830D01*
X161539085Y-98718000D01*
X161544001Y-98767911D01*
X161544001Y-98866782D01*
X161465820Y-98890498D01*
X161355506Y-98949463D01*
X161258815Y-99028815D01*
X161179463Y-99125506D01*
X161120498Y-99235820D01*
X161084188Y-99355518D01*
X161071928Y-99480000D01*
X161071928Y-100203000D01*
X153797000Y-100203000D01*
X153797000Y-77597000D01*
X161071928Y-77597000D01*
X161071928Y-78447000D01*
G37*
X161071928Y-78447000D02*
X161084188Y-78571482D01*
X161120498Y-78691180D01*
X161179463Y-78801494D01*
X161258815Y-78898185D01*
X161355506Y-78977537D01*
X161465820Y-79036502D01*
X161585518Y-79072812D01*
X161710000Y-79085072D01*
X163410000Y-79085072D01*
X163534482Y-79072812D01*
X163654180Y-79036502D01*
X163764494Y-78977537D01*
X163861185Y-78898185D01*
X163940537Y-78801494D01*
X163999502Y-78691180D01*
X164023966Y-78610534D01*
X164099731Y-78694588D01*
X164333080Y-78868641D01*
X164595901Y-78993825D01*
X164743110Y-79038476D01*
X164973000Y-78917155D01*
X164973000Y-77724000D01*
X164953000Y-77724000D01*
X164953000Y-77597000D01*
X165247000Y-77597000D01*
X165247000Y-77724000D01*
X165227000Y-77724000D01*
X165227000Y-78917155D01*
X165456890Y-79038476D01*
X165604099Y-78993825D01*
X165866920Y-78868641D01*
X166100269Y-78694588D01*
X166295178Y-78478355D01*
X166364805Y-78361466D01*
X166486525Y-78543632D01*
X166693368Y-78750475D01*
X166936589Y-78912990D01*
X167206842Y-79024932D01*
X167493740Y-79082000D01*
X167786260Y-79082000D01*
X168073158Y-79024932D01*
X168343411Y-78912990D01*
X168586632Y-78750475D01*
X168793475Y-78543632D01*
X168955990Y-78300411D01*
X169067932Y-78030158D01*
X169125000Y-77743260D01*
X169125000Y-77597000D01*
X176403000Y-77597000D01*
X176403000Y-100203000D01*
X169125000Y-100203000D01*
X169125000Y-100202998D01*
X168960815Y-100202998D01*
X169081481Y-99973109D01*
X168984157Y-99698748D01*
X168835178Y-99448645D01*
X168640269Y-99232412D01*
X168406920Y-99058359D01*
X168144099Y-98933175D01*
X167996890Y-98888524D01*
X167767000Y-99009845D01*
X167767000Y-100203000D01*
X167513000Y-100203000D01*
X167513000Y-99009845D01*
X167283110Y-98888524D01*
X167135901Y-98933175D01*
X166873080Y-99058359D01*
X166639731Y-99232412D01*
X166444822Y-99448645D01*
X166375195Y-99565534D01*
X166253475Y-99383368D01*
X166046632Y-99176525D01*
X165803411Y-99014010D01*
X165533158Y-98902068D01*
X165246260Y-98845000D01*
X164953740Y-98845000D01*
X164666842Y-98902068D01*
X164396589Y-99014010D01*
X164153368Y-99176525D01*
X164021513Y-99308380D01*
X163999502Y-99235820D01*
X163940537Y-99125506D01*
X163861185Y-99028815D01*
X163764979Y-98949861D01*
X167228841Y-95486000D01*
X171633541Y-95486000D01*
X171729061Y-95505000D01*
X171932939Y-95505000D01*
X172132898Y-95465226D01*
X172321256Y-95387205D01*
X172490774Y-95273937D01*
X172634937Y-95129774D01*
X172748205Y-94960256D01*
X172826226Y-94771898D01*
X172866000Y-94571939D01*
X172866000Y-94368061D01*
X172847000Y-94272541D01*
X172847000Y-88163213D01*
X172857000Y-88112939D01*
X172857000Y-87909061D01*
X172817226Y-87709102D01*
X172739205Y-87520744D01*
X172625937Y-87351226D01*
X172481774Y-87207063D01*
X172312256Y-87093795D01*
X172123898Y-87015774D01*
X171923939Y-86976000D01*
X171720061Y-86976000D01*
X171624541Y-86995000D01*
X168980459Y-86995000D01*
X168884939Y-86976000D01*
X168681061Y-86976000D01*
X168481102Y-87015774D01*
X168292744Y-87093795D01*
X168123226Y-87207063D01*
X167979063Y-87351226D01*
X167865795Y-87520744D01*
X167787774Y-87709102D01*
X167748000Y-87909061D01*
X167748000Y-88112939D01*
X167787774Y-88312898D01*
X167865795Y-88501256D01*
X167979063Y-88670774D01*
X168123226Y-88814937D01*
X168292744Y-88928205D01*
X168481102Y-89006226D01*
X168681061Y-89046000D01*
X168884939Y-89046000D01*
X168980459Y-89027000D01*
X170815001Y-89027000D01*
X170815000Y-93454000D01*
X166857893Y-93454000D01*
X166807999Y-93449086D01*
X166758105Y-93454000D01*
X166758098Y-93454000D01*
X166608829Y-93468702D01*
X166417313Y-93526798D01*
X166240810Y-93621140D01*
X166086104Y-93748104D01*
X166054292Y-93786867D01*
X161876868Y-97964292D01*
X161838105Y-97996104D01*
X161711141Y-98150810D01*
X161616799Y-98327313D01*
X161558702Y-98518830D01*
X161539085Y-98718000D01*
X161544001Y-98767911D01*
X161544001Y-98866782D01*
X161465820Y-98890498D01*
X161355506Y-98949463D01*
X161258815Y-99028815D01*
X161179463Y-99125506D01*
X161120498Y-99235820D01*
X161084188Y-99355518D01*
X161071928Y-99480000D01*
X161071928Y-100203000D01*
X153797000Y-100203000D01*
X153797000Y-77597000D01*
X161071928Y-77597000D01*
X161071928Y-78447000D01*
M02*
